<svg width="100%" viewBox="0 0 512 70" stroke="white" fill="none" xmlns="http://www.w3.org/2000/svg">
  <g transform="matrix(0.999368,0,0,0.999368,0.311091,-0.132805)">
    <path
      d="M63.033,16.296C63.033,16.296 54.252,1.414 34.62,1.484C15.475,1.553 1.28,18.351 1.28,35.039C1.28,51.728 14.523,68.821 34.79,68.749C54.768,68.679 63.033,53.992 63.033,53.992"
      class="styles__s_0--2NW86 styles__disableAnimation--16pDs"></path>
  </g>
  <g transform="matrix(0.821545,0,0,0.821545,6.4615,6.10663)">
    <path
      d="M63.033,16.296C63.033,16.296 54.252,1.414 34.62,1.484C15.475,1.553 1.28,18.351 1.28,35.039C1.28,51.728 14.523,68.821 34.79,68.749C54.768,68.679 63.033,53.992 63.033,53.992"
      class="styles__s_1--9lIW7 styles__disableAnimation--16pDs"></path>
  </g>
  <g transform="matrix(0.648957,0,0,0.648957,12.5517,12.2307)">
    <path
      d="M63.033,16.296C63.033,16.296 54.252,1.414 34.62,1.484C15.475,1.553 1.28,18.351 1.28,35.039C1.28,51.728 14.523,68.821 34.79,68.749C54.768,68.679 63.033,53.992 63.033,53.992"
      class="styles__s_2--S_oF0 styles__disableAnimation--16pDs"></path>
  </g>
  <g transform="matrix(0.47475,0,0,0.47475,18.6226,18.3797)">
    <path
      d="M63.033,16.296C63.033,16.296 54.252,1.414 34.62,1.484C15.475,1.553 1.28,18.351 1.28,35.039C1.28,51.728 14.523,68.821 34.79,68.749C54.768,68.679 63.033,53.992 63.033,53.992"
      class="styles__s_3--mjhiw styles__disableAnimation--16pDs"></path>
  </g>
  <g transform="matrix(1.09045,0,0,1.09045,-2.6178,-3.33134)">
    <path
      d="M71.056,65.94L71.056,4.286L107.711,4.286C107.711,4.286 129.619,4.792 129.619,26.07C129.619,47.348 105.876,47.936 105.876,47.936L90.363,47.992"
      class="styles__s_4--cGd6G styles__disableAnimation--16pDs"></path>
  </g>
  <g transform="matrix(0.889836,0,0,0.889836,17.5112,3.71274)">
    <path
      d="M71.502,72.891L71.229,4.286L107.711,4.286C107.711,4.286 129.454,3.203 129.454,24.481C129.454,43.765 105.72,44.25 105.72,44.25L88.204,44.316"
      class="styles__s_5--2tcOh styles__disableAnimation--16pDs"></path>
  </g>
  <g transform="matrix(0.670133,0,0,0.670133,39.4896,10.8782)">
    <path
      d="M71.229,86.095L71.229,4.286L107.711,4.286C107.711,4.286 129.722,3.237 129.722,21.052C129.722,38.866 106.692,38.83 106.692,38.83L84.312,38.896"
      class="styles__s_6--lBOyZ styles__disableAnimation--16pDs"></path>
  </g>
  <g transform="matrix(0.460761,0,0,0.460761,60.45,17.9482)">
    <path
      d="M71.229,109.873L71.229,4.286L107.711,4.286C107.711,4.286 129.285,3.85 129.333,15.024C129.385,27.241 108.087,26.997 108.087,26.997L77.046,27.082"
      class="styles__s_7--21CLl styles__disableAnimation--16pDs"></path>
  </g>
  <g transform="matrix(1.09045,0,0,1.09045,-2.6178,-3.33134)">
    <path d="M103.015,50.376L108.736,67.134" class="styles__s_8--3ERx6 styles__disableAnimation--16pDs"></path>
  </g>
  <g transform="matrix(1.09045,0,0,1.09045,3.71946,-3.33134)">
    <path d="M102.724,49.521L108.736,67.134" class="styles__s_9--1tpBD styles__disableAnimation--16pDs"></path>
  </g>
  <g transform="matrix(1.15031,0,0,1.15031,3.59607,-7.27827)">
    <path d="M102.644,49.285L108.695,67.071" class="styles__s_10--1QYET styles__disableAnimation--16pDs"></path>
  </g>
  <g transform="matrix(1.30912,0,0,1.30912,-7.87751,-17.7504)">
    <path d="M103.015,50.376L108.604,66.934" class="styles__s_11--t3caE styles__disableAnimation--16pDs"></path>
  </g>
  <g transform="matrix(1.09045,0,0,1.09045,-2.6178,-3.33134)">
    <path d="M136.347,67.683L161.914,3.521L187.816,67.682" class="styles__s_12--2dGwY styles__disableAnimation--16pDs">
    </path>
  </g>
  <g transform="matrix(1.09045,0,0,1.09045,3.9249,-3.33134)">
    <path d="M161.914,3.521L187.816,67.682" class="styles__s_13--34cbF styles__disableAnimation--16pDs"></path>
  </g>
  <g transform="matrix(1.09045,0,0,1.09045,10.4676,-3.33134)">
    <path d="M161.914,3.521L187.816,67.682" class="styles__s_14--2sLWv styles__disableAnimation--16pDs"></path>
  </g>
  <g transform="matrix(1.09045,0,0,1.09045,17.0103,-3.33134)">
    <path d="M161.914,3.521L187.816,67.682" class="styles__s_15--2hbVD styles__disableAnimation--16pDs"></path>
  </g>
  <g transform="matrix(1.09045,0,0,1.09045,-2.6178,-3.33134)">
    <path d="M142.364,68.158L164.241,11.941" class="styles__s_16--1x4Pp styles__disableAnimation--16pDs"></path>
  </g>
  <g transform="matrix(1.09045,0,0,1.09045,3.9249,-3.33134)">
    <path d="M142.364,68.158L161.42,18.992" class="styles__s_17--3ybuq styles__disableAnimation--16pDs"></path>
  </g>
  <g transform="matrix(1.09045,0,0,1.09045,10.4676,-3.33134)">
    <path d="M142.364,68.158L158.598,26.695" class="styles__s_18--1uhZd styles__disableAnimation--16pDs"></path>
  </g>
  <g transform="matrix(1.09045,0,0,1.09045,-2.53711,-2.95841)">
    <path d="M163.125,46.826L178.975,46.826" class="styles__s_19--2iZd3 styles__disableAnimation--16pDs"></path>
  </g>
  <g transform="matrix(1.28676,0,0,1.09045,-35.6575,3.11735)">
    <path d="M163.125,46.826L178.975,46.826" class="styles__s_20--2VMTq styles__disableAnimation--16pDs"></path>
  </g>
  <g transform="matrix(1.62193,0,0,1.09045,-93.8472,9.21239)">
    <path d="M163.125,46.826L178.975,46.826" class="styles__s_21--3VSVv styles__disableAnimation--16pDs"></path>
  </g>
  <g transform="matrix(1.09045,0,0,1.09045,-2.6178,-3.33134)">
    <path d="M213.627,4.393L213.627,65.98" class="styles__s_22--3t6oC styles__disableAnimation--16pDs"></path>
  </g>
  <g transform="matrix(1.09045,0,0,1.09045,3.17436,-3.33134)">
    <path d="M213.627,4.393L213.627,65.98" class="styles__s_23--2M8ip styles__disableAnimation--16pDs"></path>
  </g>
  <g transform="matrix(1.09045,0,0,1.09045,9.63337,-3.35191)">
    <path d="M213.627,4.393L213.627,65.98" class="styles__s_24--2EJFC styles__disableAnimation--16pDs"></path>
  </g>
  <g transform="matrix(1.09045,0,0,1.09045,15.4801,-3.41223)">
    <path d="M213.627,4.393L213.627,65.98" class="styles__s_25--2_GsT styles__disableAnimation--16pDs"></path>
  </g>
  <g transform="matrix(1.09045,0,0,1.09045,-2.6178,-3.23502)">
    <path d="M230.487,4.191L258.538,4.191" class="styles__s_26--JpvUh styles__disableAnimation--16pDs"></path>
  </g>
  <g transform="matrix(1.09045,0,0,1.09045,-2.6178,2.99676)">
    <path d="M230.487,4.191L258.538,4.191" class="styles__s_27--1DeGl styles__disableAnimation--16pDs"></path>
  </g>
  <g transform="matrix(1.09045,0,0,1.09045,-2.6178,8.93293)">
    <path d="M230.487,4.191L258.538,4.191" class="styles__s_28--2CddV styles__disableAnimation--16pDs"></path>
  </g>
  <g transform="matrix(1.09045,0,0,1.09045,-2.6178,27.2976)">
    <path d="M230.487,4.191L258.538,4.191" class="styles__s_29--1LfgY styles__disableAnimation--16pDs"></path>
  </g>
  <g transform="matrix(1.09045,0,0,1.09045,-2.6178,33.5294)">
    <path d="M230.487,4.191L258.538,4.191" class="styles__s_30--AjC7u styles__disableAnimation--16pDs"></path>
  </g>
  <g transform="matrix(1.09045,0,0,1.09045,-2.6178,39.4655)">
    <path d="M230.487,4.191L258.538,4.191" class="styles__s_31--31Mcz styles__disableAnimation--16pDs"></path>
  </g>
  <g transform="matrix(1.5189,0,0,1.09045,-61.5193,-3.23502)">
    <path d="M230.487,4.191L258.538,4.191" class="styles__s_32--2kTqq styles__disableAnimation--16pDs"></path>
  </g>
  <g transform="matrix(1.5189,0,0,1.09045,-61.5193,2.99676)">
    <path d="M230.487,4.191L258.538,4.191" class="styles__s_33--2s-uV styles__disableAnimation--16pDs"></path>
  </g>
  <g transform="matrix(1.5189,0,0,1.09045,-61.5193,8.93293)">
    <path d="M230.487,4.191L258.538,4.191" class="styles__s_34--2RzcI styles__disableAnimation--16pDs"></path>
  </g>
  <g transform="matrix(1.09045,0,0,0.874825,67.7788,10.8958)">
    <path d="M213.627,4.393L213.627,65.98" class="styles__s_35--3gJOU styles__disableAnimation--16pDs"></path>
  </g>
  <g transform="matrix(1.09045,0,0,0.874825,73.571,10.8958)">
    <path d="M213.627,4.393L213.627,65.98" class="styles__s_36--i7BzA styles__disableAnimation--16pDs"></path>
  </g>
  <g transform="matrix(1.09045,0,0,0.874825,80.03,10.8792)">
    <path d="M213.627,4.393L213.627,65.98" class="styles__s_37--3nhKR styles__disableAnimation--16pDs"></path>
  </g>
  <g transform="matrix(1.09045,0,0,0.874825,85.8768,10.8309)">
    <path d="M213.627,4.393L213.627,65.98" class="styles__s_38--2SoW- styles__disableAnimation--16pDs"></path>
  </g>
  <g transform="matrix(1.09045,0,0,1.0953,108.443,-3.62578)">
    <path d="M213.627,4.393L213.627,65.98" class="styles__s_39--X81iJ styles__disableAnimation--16pDs"></path>
  </g>
  <g transform="matrix(1.09045,0,0,1.0953,114.236,-3.62578)">
    <path d="M213.627,4.393L213.627,65.98" class="styles__s_40--3IZGC styles__disableAnimation--16pDs"></path>
  </g>
  <g transform="matrix(1.09045,0,0,1.0953,120.695,-3.64645)">
    <path d="M213.627,4.393L213.627,65.98" class="styles__s_41--vY2iu styles__disableAnimation--16pDs"></path>
  </g>
  <g transform="matrix(1.09045,0,0,1.0953,126.541,-3.70703)">
    <path d="M213.627,4.393L213.627,65.98" class="styles__s_42--382zY styles__disableAnimation--16pDs"></path>
  </g>
  <g transform="matrix(1.09045,0,0,1.09045,-2.6178,-3.33134)">
    <path d="M342.61,65.997L342.592,2.796L382.407,67.008" class="styles__s_43--32bPE styles__disableAnimation--16pDs">
    </path>
  </g>
  <g transform="matrix(1.09045,0,0,1.09045,4.49719,-3.33134)">
    <path d="M342.592,2.796L382.407,67.008" class="styles__s_44--3az-z styles__disableAnimation--16pDs"></path>
  </g>
  <g transform="matrix(1.09045,0,0,1.09045,11.8779,-3.33134)">
    <path d="M342.592,2.796L382.407,67.008" class="styles__s_45--1A1rg styles__disableAnimation--16pDs"></path>
  </g>
  <g transform="matrix(-1.09045,-1.33542e-16,1.33542e-16,-1.09045,809.685,73.3654)">
    <path d="M342.61,65.997L342.592,2.796L382.407,67.008" class="styles__s_46--1CeME styles__disableAnimation--16pDs">
    </path>
  </g>
  <g transform="matrix(1.09045,0,0,0.932185,144.1,7.13636)">
    <path d="M213.627,4.393L213.627,65.98" class="styles__s_47--34Gtn styles__disableAnimation--16pDs"></path>
  </g>
  <g transform="matrix(1.09045,0,0,0.773184,149.892,17.6273)">
    <path d="M213.627,4.393L213.627,65.98" class="styles__s_48--4ulxF styles__disableAnimation--16pDs"></path>
  </g>
  <g transform="matrix(1.09045,0,0,0.620606,156.351,27.6769)">
    <path d="M213.627,4.393L213.627,65.98" class="styles__s_49--3riMN styles__disableAnimation--16pDs"></path>
  </g>
  <g transform="matrix(-1.09045,0,0,-0.932185,663.055,62.9137)">
    <path d="M213.627,4.393L213.627,65.98" class="styles__s_50--2m-Z4 styles__disableAnimation--16pDs"></path>
  </g>
  <g transform="matrix(-1.09045,0,0,-0.773184,657.263,52.4227)">
    <path d="M213.627,4.393L213.627,65.98" class="styles__s_51--36AzS styles__disableAnimation--16pDs"></path>
  </g>
  <g transform="matrix(-1.09045,0,0,-0.620606,650.804,42.3731)">
    <path d="M213.627,4.393L213.627,65.98" class="styles__s_52--2VtQC styles__disableAnimation--16pDs"></path>
  </g>
  <g transform="matrix(0.999368,0,0,0.999368,444.124,-0.132805)">
    <path
      d="M63.033,16.296C63.033,16.296 54.252,1.414 34.62,1.484C15.475,1.553 1.28,18.351 1.28,35.039C1.28,51.728 14.523,68.821 34.79,68.749C40.264,68.73 44.858,67.614 48.644,66.003"
      class="styles__s_53--2brSf styles__disableAnimation--16pDs"></path>
  </g>
  <g transform="matrix(0.821545,0,0,0.821545,450.275,6.10663)">
    <path
      d="M63.033,16.296C63.033,16.296 54.252,1.414 34.62,1.484C15.475,1.553 1.28,18.351 1.28,35.039C1.28,51.728 14.523,68.821 34.79,68.749C41.55,68.726 46.969,67.028 51.18,64.793"
      class="styles__s_54--tWfhr styles__disableAnimation--16pDs"></path>
  </g>
  <g transform="matrix(0.648957,0,0,0.648957,456.365,12.2307)">
    <path
      d="M63.033,16.296C63.033,16.296 54.252,1.414 34.62,1.484C15.475,1.553 1.28,18.351 1.28,35.039C1.28,51.728 14.523,68.821 34.79,68.749C43.871,68.717 50.532,65.665 55.097,62.346"
      class="styles__s_55--2dPgu styles__disableAnimation--16pDs"></path>
  </g>
  <g transform="matrix(0.47475,0,0,0.47475,462.436,18.3797)">
    <path
      d="M63.033,16.296C63.033,16.296 54.252,1.414 34.62,1.484C15.475,1.553 1.28,18.351 1.28,35.039C1.28,51.728 14.523,68.821 34.79,68.749C54.768,68.679 63.033,53.992 63.033,53.992"
      class="styles__s_56--1cuou styles__disableAnimation--16pDs"></path>
  </g>
  <g transform="matrix(1.09045,0,0,0.546582,259.65,32.5533)">
    <path d="M213.627,4.393L213.627,65.98" class="styles__s_57--2RvSW styles__disableAnimation--16pDs"></path>
  </g>
  <g transform="matrix(1.09045,0,0,0.546582,265.442,32.5533)">
    <path d="M213.627,4.393L213.627,65.98" class="styles__s_58--38HH6 styles__disableAnimation--16pDs"></path>
  </g>
  <g transform="matrix(1.09045,0,0,0.546582,271.901,32.543)">
    <path d="M213.627,4.393L213.627,65.98" class="styles__s_59--YA4xr styles__disableAnimation--16pDs"></path>
  </g>
  <g transform="matrix(1.09045,0,0,0.546582,277.748,32.5128)">
    <path d="M213.627,4.393L213.627,65.98" class="styles__s_60--2nNVH styles__disableAnimation--16pDs"></path>
  </g>
</svg>