<svg width="100%" viewBox="-90 0 600 720" stroke="#42423D" fill="none" xmlns="http://www.w3.org/2000/svg">
  <path
    d="m 331.4,660.2 a 1,1 0 1 1 1.6,1.2 1,1 0 1 1 -1.6,-1.2 m -3.1,-2.5 a 1,1 0 1 1 1.5,1.3 1,1 0 1 1 -1.5,-1.3 m 5.6,-0.7 a 1,1 0 1 1 1.5,1.2 1,1 0 1 1 -1.5,-1.2 m -3.2,-2.4 a 1,1 0 1 1 1.6,1.2 1,1 0 1 1 -1.6,-1.2 m -13.2,12.8 a 1.0307764,1.0307764 0 1 1 2,0.5 1.0307764,1.0307764 0 1 1 -2,-0.5 m -3.9,-1.1 a 1.0307764,1.0307764 0 1 1 2,0.5 1.0307764,1.0307764 0 1 1 -2,-0.5 m 4.9,-2.8 a 1.0307764,1.0307764 0 1 1 2,0.5 1.0307764,1.0307764 0 1 1 -2,-0.5 m -3.8,-1 a 1.0307764,1.0307764 0 1 1 2,0.5 1.0307764,1.0307764 0 1 1 -2,-0.5 M 350,508.2 a 1,1 0 1 1 2,0 1,1 0 1 1 -2,0 m -4,0 a 1,1 0 1 1 2,0 1,1 0 1 1 -2,0 m 4,-4 a 1,1 0 1 1 2,0 1,1 0 1 1 -2,0 m -4,0 a 1,1 0 1 1 2,0 1,1 0 1 1 -2,0 m 20,-5 a 1,1 0 1 1 2,0 1,1 0 1 1 -2,0 m -4,0 a 1,1 0 1 1 2,0 1,1 0 1 1 -2,0 m 4,-4 a 1,1 0 1 1 2,0 1,1 0 1 1 -2,0 m -4,0 a 1,1 0 1 1 2,0 1,1 0 1 1 -2,0 m -21,10 a 7.5,7 0 1 1 15,0 7.5,7 0 1 1 -15,0 m -15.99857,152.97296 a 6.500025,8.00002 0 1 1 13.00005,0 6.500025,8.00002 0 1 1 -13.00005,0 m -15,7 a 6.500025,8.00002 0 1 1 13.00005,0 6.500025,8.00002 0 1 1 -13.00005,0 M 357,496.2 a 7.5,7 0 1 1 15,0 7.5,7 0 1 1 -15,0 m -295,103 3,2 m 172.5,22.4 c 0.7,0 1.5,1.6 0.8,1.6 m 2.3,-0.7 c 0.4,0 0.5,1.1 0.5,1.6 m 2.8,-2 c 0,1 0.9,1.6 0.9,2.4 m 1.3,-4 c 0.2,0 1.7,2.3 2,2.5 m 0.7,-4.6 c -0.2,0 0.4,0.2 0.5,0.3 0.3,0.3 0.8,1.6 1,1.6 m 1.3,-4.1 c 1,0 0.8,1.5 1.8,1.5 m -39.6,-12 c 0.5,0 0.8,1.5 1,2 0,0 0.6,1.3 0.4,1.3 m 1.3,-4.5 c 0,0.7 0.6,2.1 1,2.5 l 0.5,0.8 m 2,-3.9 c 0.6,0.6 0.8,2.5 1.5,2.5 m 3.4,-2 c 0,0.7 1.2,1.9 0.6,1.9 -0.3,0 -0.6,-1 -0.3,-1 M 106,591.3 c 0,0 9.2,-1.4 10,-4 m 26,48 c 0,0 3.6,-0.5 5,-5 m 210,32 c 0,0 4,33.5 12,72 m -76,-347 c 0,0 33,49.9 48,64 15.1,14 30,34 30,34 m -111,91 c 0,0 14.5,0.1 50,87 M 65.08152,568.2 c 0,0 -1.511226,-1.92 -0.83957,-4 M 154,634.2 c 0,0 19,10.7 25,12 6.1,1.3 22.4,5.1 31,3 8.7,-2.2 27.4,-10.1 34,-11 6.7,-1 25,0 25,0 m -202,-76 c 0,0 0.5,6 -2,7 -2.4,1 -4,3 -4,3 0,0 -4.5,-1.3 -2,-7 m 6,43 c 0,0 2.9,-10.3 -2,-11 m 64,44 h -5 m -18,-25 c 0,0 -3.3,-1.2 -5,-3 m 3,11 c 0,0 -0.7,3.7 -3,4 m -7,-43 v -3 m -14,11 h -3 m 7,-23 -2,-2 m 46,79 c 0,0 1,-2.6 1,-6 0,0 4.6,-2.7 11,-9 m -1,2 c 0,0 3,1.6 8,1 5.1,-0.6 12,-0.6 14,-2 m -32,-17 c 0,0 -15.5,7 -17,11 -1.5,4 -1,22 -1,22 0,0 1.3,3.6 6,5 4.7,1.3 19,0 19,0 0,0 4,-6.1 0,-11 -4,-4.9 -4,-3 -4,-3 m -16,-49 c 0,0 -17,-0.8 -23,3 -6,3.7 -7.5,8.2 -7,26 0,0 -2,7.3 2,11 4,3.7 18,14 18,14 l 5,-5 v -10 c 0,0 -2.3,-2.7 -7,-6 0,0 1,-4.3 1,-8 0,0 13.6,-3.8 20,1 m -14,-48 c 0,0 -10.7,-6.8 -15,-6 -4.3,0.8 -27,18 -27,18 0,0 -2,4.2 -4,12 -2,7.8 -4.6,9.6 -3,12 1.7,2.4 7.6,7.4 13,-1 5.5,-8.4 5,-11 5,-11 0,0 11.8,-2.8 14,-8 0,0 5.1,6.2 11,6 m 201,-39 c 0,0 -5.6,5.5 -1,16 4.7,10.5 17,-22 17,-22 m 6,6 c 0,0 -0.4,30.3 11,23 11.5,-7.3 -5,-20 -5,-20 m -8,-13 c 0,0 22,19.4 35,10 13.1,-9.4 -13,-20 -13,-20 0,0 19.2,-4.2 40,-4 20.9,0.1 -18,-15 -18,-15 m 4,-3 c 0,0 51.8,23.6 55,17 3.2,-6.6 -50,-20 -50,-20 m 5,-5 c 0,0 28.5,2.8 28,8 m -3,21 c 0,0 15.4,7 19,14 m -28,-88 c 0,0 19.2,-5.6 14,-19 m -217,212 -7,80 M 57,506.2 c 0,0 7.9,21.8 11,32 3.2,10.2 4,17 4,17 m 9,40 2,11 c 0,0 -33.8,93.9 -37,122 m 48,-178 -16,4 c 0,0 -12.7,8.4 -18,10 -5.3,1.5 -3.9,11.5 3,11 7,-0.6 19,-5 19,-5 m 318,-149 c 0,0 9.7,14.7 12,17 2.3,2.3 14.8,6 15,28 0.3,22 14,29 14,29 0,0 3,16.2 4,23 1,6.7 13.1,31.5 7,52 -6,20.5 -38.4,49.3 -71,73 -32.6,23.7 -82,63 -82,63 l -36,-81 c -7.5,-17 -24.3,-37.2 -28,-37 m 15,50 49,68 m 55,-287 c 0,0 11.3,-16.3 19,-21 7.8,-4.7 17,-5.9 28,-18 11.1,-12.1 22.6,-18.9 28,-30 0,0 1.5,-2.8 3,-4 1.6,-1.2 4,-6 4,-6 m -5,7 c 0,0 -0.3,3.7 7,1 m -10,5 c 0,0 0.4,2.8 2,3 M 361,397 c 1.7,0 2.9,-1.2 4.5,-1.7 0.3,-0.1 2,-1 2,-0.8 m -6,6.8 c 1.4,0 2.6,-0.5 3.8,-0.5 m -7.9,3 c 1.1,0 1.3,1 2.4,1 m -5.5,-0.1 c 0.2,0.2 2,2.8 1.4,2.8 m -5.7,-1.8 c 0.5,0 1.8,1.3 1.8,1.7 m -5.2,-2.4 c 0.8,0 1.2,1.1 1.2,1.9 M 383,375.8 c 0,-1.2 3,-1.5 3,-2.7 m -1.7,6 c 0,-0.4 1,-0.9 1.3,-1.3 0.9,-1.3 2.6,-2.7 4.4,-2.7 m -1,16 c 0,0 -4.5,30.6 -10,37 m 2,-34 c 0,0 -1.3,17.5 -5,23 m 13,-17 c 0,0 10.2,14.8 11,23 0.8,8.1 -10,25 -10,25 m 28,-131.9 c 0,0 9.8,0.3 19,7 9.3,6.7 11,15 11,15 0,0 -4.4,9.8 -7,12 -2.6,2.2 -6.4,10.2 -20,12 m -30,-78 c 0,0 6.6,-5 16,1 9.4,5.9 15,8 15,8 0,0 10.8,4.7 12,10 1.3,5.3 1,7 1,7 m -19,-21 3,-2 m -3,2 -2,-3 m -14,-16 c 0,0 1,-12 13,-3 m -10,33 c 0,0 0.9,-6 12,1 11.2,6.9 26.6,10 28,19 1.4,9 0,8 0,8 m -128,43 c 0,0 25.4,-26.9 29,-38 3.7,-11.1 11.6,-32 16,-39 0,0 6,-15.3 14,-18 8,-2.7 41,-9 41,-9 0,0 6,3.4 8,7 2,3.6 7.9,20.5 7,23 m -177,-25 c 0,0 32.8,16.6 49,19 a 89.8,89.8 0 0 1 40,21 c 3,3.8 8,2 8,2 m -26,46 c 0,0 -5,-45.4 -1,-51 4,-5.6 3,28 3,28 m -82,-84 c 0,0 5,22.7 29,47 l 1,9 15,13 c 0,0 8.1,12.3 10,59 m -162,108 c 0,0 -39.2,23 -35,43 4.3,20 5,28 5,28 0,0 -0.2,-41.8 27,-63 m -5,18 c 0,0 26,-41 23,-26 -3,15 -27.1,27.5 -21,88 0,0 -6.8,-4.1 -6,-37 m 24,22 c 0,0 12.8,31.6 12,16 -0.7,-15.6 -16.3,-79 -5,-72 11.3,7 11.5,35.8 15,26 3.6,-9.9 -6,-29 1,-42 7,-13 10.5,-15.8 22,1 m 15,38 c 0,0 31,-66.4 22,-78 m 29,86 c 0,0 27.4,-102.2 40,-115 12.7,-12.9 -5.5,50.2 -1,76 4.6,25.8 25,23 25,23 m -146,-48 c 0,0 12.3,-9.3 24,-11 0,0 9.8,-12.3 29,-14 0,0 7.7,-14.6 18,-21 10.4,-6.4 57.8,-57 63,-56 m -136,-77 c 0,0 52.5,63.2 71,133 m -2,-136 c 0,0 22.2,47.2 22,120 m -71,-90 c 0,0 11,15 61,8 m -79,143 c 0,0 -60.4,-3.4 -72,22 -9.3,20.6 30.8,-18.1 62,-19 m 7,-6 c 0,0 -42.2,-81.6 -62,-103 -19.8,-21.4 -26,-29 -26,-29 l 31,41 c 0,0 -42.5,-42.7 -54,-46 -11.5,-3.3 -9.7,-2 57,53 0,0 11,11.1 21.2,24.3 M 314,372.2 c 0,0 31,35.5 41,50 10,14.5 44.6,57 49,59 4.5,2 -48,-65 -48,-65 m -179,56 c 0,0 -15.3,-48.8 -47,-102 -31.6,-53.2 -14,-46 -14,-46 0,0 40.6,36.8 62,90 m -59,-154 -84,37 c -8,3.4 -39.1,28.5 -27,80 12.2,51.5 35.3,110.3 40,118 4.8,7.6 37.3,46.5 43,52 5.7,5.5 45.5,56.4 58,62 12.6,5.5 34,13 45,8 11.1,-5 27,-23 27,-23 0,0 79,-35.4 105,-60 26,-24.7 47.5,-31.2 57,-35 9.5,-3.8 23,-17 23,-17 m -129,-309 c 0,0 0.8,5.6 5,6 4.3,0.3 8,-10 8,-10 M 153.2,182 c 0.5,0 1.8,0.3 2,0.1 l 0.8,-0.2 m 0.5,3.5 2.5,-0.3 m 0.3,3.8 c 0.8,0 3.3,-0.6 3.3,-1.4 m 1.6,4.3 c 0.9,0 3.1,-1.9 3.1,-2.6 m 2.4,4.5 c 1,0 2.7,-1.9 2.7,-2.7 m 95.2,1.8 c -0.5,0 -1.3,0.3 -1.8,0 -0.4,-0.3 -1,-1 -1.4,-1 m 5.5,-4.3 c 0,0 -3,1.9 -3,0.8 m 5.1,-5.5 c -1,0 -1.4,1 -2.7,1 m 3.7,-6.2 c 0,0.8 -1.6,1.5 -2,1.5 m -81,30 0.5,-0.1 c 0.5,-0.6 -0.5,-3 0.5,-3 m 59.3,2 c 0,-0.5 2.2,1 2.4,1.2 m -49,-87.6 0.1,1.2 v 0.6 m -1.9,-0.4 c 0,0 0.4,0.6 0.4,1 m -2,-0.2 c 0.3,0 0.5,0.8 0.3,0.8 m -2.1,0.5 0.4,-0.3 m 34.3,1 c 0.3,0 0.3,1 0.3,1.3 l 0.1,0.5 m 1.4,0.7 c -0.2,0 0.1,0.5 0.1,0.9 m 1.4,0 0.4,0.8 m 1.7,1 c 0,-0.2 0.3,0 0.2,0 M 197,108.3 c 0,0 10.9,-0.1 16,14 m 19,-1 c 0,0 2.3,-15.6 25,-9 m -47,183 c 0,0 3.8,8.9 11,13 7.3,4.1 4.5,-8.9 5,-11 M 171.5,249 h 2.2 m -1.7,2.7 3.1,-0.1 m -2.6,3.6 h 3.3 m -3,3.8 c 1.9,0 3.7,-0.6 5.5,-0.6 m -4.4,4.2 c 0.9,0 2.9,-0.2 3.4,-0.7 0.2,-0.2 0.8,0 1,-0.3 h 0.4 m -3.7,4.6 c 0.9,0 3,-0.1 3.6,-0.7 0.2,-0.2 1.1,-0.1 1.1,-0.3 m -3.2,5.2 c 1.3,0 2.7,-0.4 3.7,-0.4 m -1.7,3.9 c 0.6,0 1.6,-0.1 1.9,-0.5 0.3,-0.2 1.4,-0.2 1,-0.2 m -1,4.4 c 1,0 1.3,-0.7 2.3,-0.7 m 0,4.2 c 0.7,0 1.3,-0.5 1.9,-0.5 m -18.2,0.3 c 0,-0.7 1,-2.3 1.5,-2.3 m -0.3,4.3 c 0.2,0 0.5,-1 0.6,-1.2 0.1,-0.5 2,-2.3 2,-2.3 m -0.3,4.8 c 0,-0.6 2,-2.9 2.4,-2.9 m -0.5,4.4 c 0.5,-0.4 1.9,-2.6 2.6,-2.6 m 0.1,4.8 c 0.5,-0.4 1.3,-2.7 1.9,-2.7 m 1.1,4.8 c 0,-1 1.2,-2 1.2,-2.6 m 1.5,4.7 c 0,-0.7 1.2,-1.6 1.2,-2 m 1.5,3.3 c 0.4,0 0.8,-0.7 1.2,-0.7 m 2,2.1 c 0.6,0 1,-0.4 1.4,-0.4 m 1.5,2.7 1,-0.3 m -50,-71.6 c 0,0 -3.5,0.3 -14,17 -7.1,11.5 -8.7,14.5 -7,28 1.8,13.5 3,26 3,26 l 17,11 -9,16 c 0,0 86.9,79.1 93,125 m -84,-141 c 0,0 7.8,-10.2 12,-22 m -20,38 c 0,0 -15,-21 -35,-28 m 183,-154 c 0,0 5.6,16.3 4,21 m -6,9 c 0,0 5.5,11.1 14,2 m -9,-33.9722 c 0,0 0.9,14.14281 9,17.99994 M 283,136.2 c 0,0 -0.4,14 8,16 8.5,2 5,5 5,5 m -13,-37 c 0,0 -4.4,19.4 12,16 m -17,-18 c 0,0 11.8,28.5 19,0 m -10,-9 c 0,0 2.5,6.2 0,14 -2.5,7.8 -5.3,14.1 -1,20 4.4,5.8 20.2,10.5 14,17 m -19,-33 c 0,0 -1.1,17.4 2,23 3.2,5.6 5,11 5,11 m -9,-17 c 0,0 1,10.8 5,14 m 4,-52 c 0,0 4.2,5.9 2,16 -2.2,10.1 -5.6,16.1 0,23 5.6,6.9 14,11.7 3,19 m -15,-97 c 0,0 9.4,19.3 6,47 -3.4,27.6 9.5,17.9 12,16 m -12,-58 c 0,0 5.9,18.3 -5,62 m 7,-55 c 0,0 9.2,17.6 -8,38 m -1,-58 c 0,0 12.7,18.4 8,37 -4.6,18.6 -7.2,22.6 -3,31 4.3,8.4 -3,14 -3,14 m -7,-84 c 0,0 13.7,25.4 9,41 -4.6,15.5 -3,26 -3,26 m -9,-71 c 0,0 11.6,22.5 10,39 m -56,-60 c 0,0 16.4,-8.2 23,4 6.7,12.1 9,17 9,17 m -8,-28 c 0,0 9.8,1.2 22,36 12.3,34.8 16.8,32.2 21,29 m -41,-50 c 0,0 20,29.9 33,32 m -36,-38 c 0,0 19.5,31 39,34 m -32,-28 c 0,0 10.6,18.6 30,23 m -19,0 c 0,0 15.6,14.6 21,15 m -61,-50 c 0,0 22.5,-1.1 28,11 5.6,12 3.6,16.3 10,20 m -50,-35 c 0,0 16.8,-7.2 29,1 12.3,8.2 18.7,19 26,26 7.3,7 13,8 13,8 m -64,-38 c 0,0 16.5,2.5 29,10 12.6,7.5 10.5,8.5 19,25 8.6,16.5 5,8 5,8 m -63,-46 c 0,0 2.6,-3.7 11,-1 8.5,2.6 18.2,8.8 34,13 15.8,4.2 15,6 15,6 m -63,-18 c 0,0 2.7,-8.4 14,-4 a 498,498 0 0 0 28,10 c 10.7,3.6 14,8 20,20 6.1,12 12,23 20,28 8,5 7,2 7,2 m -75,-63 c 0,0 7.4,5.5 21,8 a 37,37 0 0 1 26,18 c 7.6,12 12.8,22 18,26 5.2,3.9 8.8,23.5 7,36 -1.8,12.4 -7.8,22.8 0,28 7.9,5.2 10,-8 10,-8 m -135,-89 c 0,0 13.1,-18.2 33,-14 m -2,3 c 0,0 20,-15.6 33,-3 m -100,131 c 0,0 -2.7,-5.2 -4,-1 -1.2,4.1 0.7,8.6 2,11 1.4,2.3 4,2 4,2 m 95,-126 c 0,0 15.6,-4.5 22,7 6.5,11.5 8.9,16.8 15,18 m -126,126 c 0,0 6.4,8 3,16 -3.3,8 -6,11 -6,11 m 5,-29 c 0,0 -0.4,2.2 2,4 m 0,-5 3,4 m -2,14 c 0,0 -2.8,11.4 -6,14 m 6,-9 c 0,0 -2.2,7.7 -3,12 m -8,-37 c 0,0 -6.8,6 0,18 m 2,-55 c 0,0 -1.6,-17.9 -9,-10 -7,7.5 -1.1,24.2 1,28 2.2,3.8 -0.4,9.7 11,10 m -1,4 c 0,0 -6.7,9 -2,16 4.8,7 4,10 4,10 m -7,-15 c 0,0 0.9,7 4,12 3.2,4.9 -2,9 -2,9 m -2,-21 c 0,0 4.1,18 0,21 m 10,-31 c 0,0 -0.8,0.7 -1.9,1.9 -2.2,2.5 -5.1,7.3 -2,12 4.4,7.1 -2,20 -5,19 M 128,178.2 c 0,0 -5,9 -2,15 3,6 4,8.5 2,10 m 12,-27 c 0,0 -10,13.7 -19,6 m 19,-3 c 0,0 -8.3,14 -21,6 m 10,-12 c 0,0 4,10.3 -2,14 -6,3.7 -4.3,2.3 -5,8 m 3,-23 c 0,0 5.5,7 0,11 -5.4,4 -3.2,2.5 -5,8 m -1,-26 c 0,0 3.2,10.6 9,13 5.8,2.4 11,-3 11,-3 m -23,-42 c 0,0 -4.5,3.8 -2,11 a 62.6,62.6 0 0 1 5,21 c -0.3,5.4 -1.9,8 1,10 m -9,-44 c 0,0 -1.5,8 2,14 3.6,6 1.6,4.7 2,14 0.4,9.3 -0.3,14.2 2,15 m -6,-59 c 0,0 5.1,12.6 3,19 -2,6.3 -1.8,6.6 -5,9 m 2,-38 c 0,0 -2.8,6.5 3,14 5.9,7.5 4.7,9.4 3,11 m 2,-38 c 0,0 -0.8,9.2 4,15 4.9,5.7 8,14 8,14 m -20,-21 c 0,0 -1.5,9.5 6,16 7.6,6.5 3,9 3,9 m -1,-31 c 0,0 -6,2.5 -3,10 3.1,7.5 11.4,11 12,18 0.6,6.9 -2,14 -2,14 m -6,-49 c 0,0 -14.4,14.7 -4,25 10.4,10.3 11,18.4 9,21 m -6,-48 c 0,0 6.9,23.5 10,32 3.2,8.5 -2,17 -2,17 m 2,-65 c 0,0 -7,6.3 -7,29 0,22.7 -6.8,40.5 -15,41 m 17,-68 c 0,0 -6,7.5 2,31 8.8,25.6 9,27.6 8,35 m 13,-96 c 0,0 -25,22.9 -21,52 4,29.1 8,28.8 6,37 -1.9,8.2 -2,5 -2,5 m 20,-96 c 0,0 -8.1,-0.1 -19,18 -10.8,18 -11.7,28.2 -12,34 -0.2,5.7 -1.6,35.4 -7,40 l -7,6 m 43,-81 c 0,0 -21.7,23.3 -14,48 7.8,24.6 6,34 6,34 m -5,-49 c 0,0 -0.2,14.7 7,28 m -5,-30 c 0,0 0,14 5,22 m 21,-82 c 0,0 -18.7,34.3 -29,43 m 0,0 c 0,0 21.2,-34.7 27,-42 m -31,64 c 0,0 -2.8,-11.7 9,-26 11.9,-14.3 18,-23 18,-23 m -9,12 c 0,0 -8,31.5 -21,40 m 68,-77 c 0,0 -22.8,-1.9 -33,15 -10.2,16.9 -3.8,28.5 -13,48 m 6,-48 c 0,0 -22.4,29 -23,42 -0.6,13 -8.2,13.7 -2,35 6.3,21.2 8.6,29.3 6,41 m -7,-62 c 0,0 2.2,21.7 8,36 m 25,-89 c 0,0 -9.1,30.4 -17,46 -7.8,15.5 -17,20 -17,20 m 51,-75 c 0,0 -11.2,2 -18,29 -6.8,27 -9.6,32 -24,39 m 30,-64 c 0,0 -10.2,8.4 -16,28 -5.7,19.6 -20.3,37 -28,40 m 62,-77 c 0,0 -18.6,-0.3 -23,20 -4.3,20.2 -10.1,45.3 -22,47 m 137.8,76.1 c 0,0.8 1,2.3 1.1,3.2 0.4,3 0.7,6 0.7,9.1 a 17,17 0 0 1 -0.7,4.3 c 0,0.5 -0.2,1 -0.4,1.4 l -0.2,0.5 m -0.8,-10.8 -0.1,13.7 c 0,0.8 0,4 -1.2,4 m -0.8,-7.5 c 0,2.6 0.1,5.3 -0.3,8 -0.1,0.9 -0.5,1.8 -0.7,2.8 -0.1,0.4 -0.7,1.3 -0.4,1 m -85.6,-78.6 c 0,-1 1.5,-2.1 1.5,-3 v 0.5 l -0.1,1 c 0,0.6 -0.3,1.4 -0.5,2 0,0 -0.3,0.4 -0.2,0.5 l 0.1,-0.2 0.2,-0.7 c 0.1,-0.7 0.5,-1.6 0.9,-2 0,0 0,-0.8 0.1,-0.7 v 1 c -0.2,0.7 0,2.3 -0.5,2.7 v 0.6 a 17.1,17.1 0 0 0 0.2,-0.8 l 0.5,-2.2 c 0,0 0.2,-0.6 0.4,-0.4 0.5,0.5 0.2,1.8 0.2,2.4 0,0.2 0.2,0.4 0,0.6 0,0 -0.1,-0.2 -0.2,0 l -0.3,0.3 0.2,-0.3 0.5,-0.8 c 0.1,-0.4 0.5,-1.6 0.8,-1.7 0.2,0 0.2,0.6 0.1,0.7 0,0.1 -0.4,1.2 -0.3,1.3 0.1,0.2 0.5,-0.6 0.5,-0.7 m 53,3.3 0.2,-0.5 c 0.1,-0.1 0.6,-1.7 0.9,-1.4 l -0.2,0.8 c -0.2,0.6 -0.2,1.7 -0.6,2.1 v 0.5 l 0.6,-2 0.4,-0.6 0.4,-0.2 c -0.2,0 -0.2,0.8 -0.2,1 0,0.6 0.1,2.2 -0.2,2.6 l 0.1,-0.2 0.3,-0.9 c 0.1,-0.3 0.3,-1.7 0.5,-1.7 0.2,0 0.2,0.5 0.2,0.6 0,0.3 -0.3,1.7 -0.2,1.9 0.3,0.2 0.3,-1 0.4,-1 l 0.5,-1.4 m 1.9,77 c 0,1 1.6,3.5 2.5,3.5 m -3.1,2 c 0.8,0 1.2,2.3 2.5,2.3 m 2.7,-1.4 c 0.6,0 1,0.5 1.7,0.5 m 1,-3.2 c 1,0 1.4,0.5 2.3,0.5 m -78.9,-3.4 c -1,0 -1.7,2.2 -3.3,2.2 m -2.7,-0.2 c -1.3,0 -2.4,1 -3.9,1 m 13.9,-1.7 c -0.6,0.5 -0.2,2 -0.7,2.6 -0.3,0.4 -1.1,0.3 -1.5,0.6 -0.2,0.2 0.3,0.2 0.2,0.2 m 5.9,1.8 c -0.2,-0.1 -2.3,1.5 -2.3,0.8 m -2.6,-9.6 0.3,1.1 c 0.2,0.8 -0.3,2.2 -0.9,2.2 M 183,23.2 c 0,0 -17.4,1.3 -17,21 0.5,19.6 10.8,44.3 -7,51 -17.7,6.7 -22,8 -22,8 m 142,50.7 c 0,1.1 0.6,2.5 0.8,3.8 0.5,3.8 0.6,7.8 0.6,11.8 0,1.7 -0.3,3.7 -0.9,5.3 l -0.7,2.4 m -135.9,-68 c 0,4 3.5,6.2 6.1,8.9 0.6,0.6 2.3,3.3 3,3.3 M 141.8,116 c 1.8,0 4.4,3.2 5.5,4.5 l 1.8,2.2 c 0.1,0.2 0.9,0.4 0.6,0.4 m 129,29 c 0,0.2 0.7,0.6 1,1 0.5,0.8 1.7,2.5 1.7,3.7 m -3.7,-9.5 c 1,2.1 3.7,4.2 3.7,6.6 m -3,3.3 c 2.6,0 2.1,5 1.8,6.7 l -0.2,2 c 0,0.2 -0.1,0.9 0,0.8 M 141.6,119.3 c 0,2.7 1.6,6 2.7,8.4 a 41.7,41.7 0 0 1 2.7,10 c 0.4,2.3 1,4.5 1,6.8 l -0.2,2.4 c 0,0.3 -0.4,1.3 -0.4,1 m -5.5,-32 c 0.5,0 1.3,1.5 1.5,1.9 1.7,2 3.2,4.3 4.6,6.5 0.7,1 1.7,2 2.2,3 0.3,0.5 1.8,1.2 1.3,1.2 m -9,-20.5 c 2.3,2.3 3.8,6 5.8,8.5 0.7,0.9 1.5,1.8 2.5,2.4 0.5,0.2 2,0.4 1.5,0.4 m -15.9,35.5 c -1,0.9 0.4,3.8 0.6,4.7 a 38.7,38.7 0 0 0 6,11.5 c 0.5,0.7 1.6,2.6 2.7,2.6 m -5.8,-20.8 c 0,3.1 2.5,7 4.2,9.5 0.6,0.9 1.7,1.6 2.2,2.4 0.3,0.5 1.7,1.2 1.3,0.9 M 139.8,148 c 0,0.6 1.5,2.6 1.8,3.2 1.3,2.3 2.1,5 3.2,7.4 0.3,0.7 1,1.8 1.5,2.3 l 0.8,0.4 M 140.7,141 c 0.6,0 1.3,1.8 1.5,2.2 1.2,2 2.2,4.3 3.2,6.4 0.3,0.5 1.1,1.4 1.1,1.8 m -10,-0.6 c 0.9,0 1.9,2.2 2.2,3 l 4.5,9.8 c 0.3,0.6 1.2,3.5 2.2,3.5 m -7.2,-13.6 c 0,6.8 1.4,12.8 6.2,17.6 m -6,-21.9 c 0,-0.2 0.5,0.4 0.6,0.5 l 0.8,1.6 2.3,4.7 c 0.3,0.6 1,1 1.3,1.5 0,0.2 0.7,0.2 0.6,0.2 m -1.7,-28 c 0.3,0 1,1.4 1.1,1.7 a 22,22 0 0 1 3.1,7.5 c 0.2,0.9 0,2 0,2.8 a 9.6,9.6 0 0 1 -0.1,1.3 m -4,-25 c 0,1.5 2.2,4 2.9,5.3 2,3.9 3.5,8.6 3.9,13 0.2,2.9 0.8,5.8 0.8,8.7 v 2.8 c 0,0.4 -0.6,1.3 -0.2,1.3 m -8.8,14.5 c 0,-0.2 0.3,0.4 0.3,0.5 l 0.8,1.4 a 42.6,42.6 0 0 1 1.7,4.7 c 1.3,4.3 3,8.5 4.2,12.8 0.1,0.7 0.9,4.1 1.9,4.1 m -5.3,-17.5 c 0.6,0 1.4,2.2 1.7,2.7 1.4,3 2.2,6.5 3.2,9.7 a 13,13 0 0 0 1.7,3.8 c 0,0.1 1.2,1.5 1.2,1 m -11.2,-25.4 c 0,2.6 1.3,5.6 2,8 1.3,5 2.3,9.9 3.9,14.7 0.3,1 1.6,6.6 3.3,6.6 M 145,166.3 c 0,2.6 0.7,5.1 0.4,7.8 -0.4,3.9 -1.3,9.6 1,13.1 0.4,0.6 1.2,0.8 1.6,1.2 m -3.1,-31.8 c 0.8,0.4 1.2,2.7 1.4,3.6 0.9,5.4 -2.4,8.5 -4.2,13.3 a 28.3,28.3 0 0 1 -2,4.5 l -0.5,1.1 m 3.3,-36.1 c 1,0 1.6,4 1.7,4.5 a 39.7,39.7 0 0 1 -1.2,15.4 22.1,22.1 0 0 1 -1.8,5 l -1,1.4 -0.6,0.2 m 0.5,-33.1 c 1.2,0 2,2.8 2.4,3.6 1.6,4.3 1.3,9.9 -0.2,14.2 -0.4,1.3 -1.2,3 -2.2,4 -0.6,0.3 -1.5,2 -1.5,1.4 m 31,48.2 c 0,1.5 1,2.7 1.4,4.2 0.7,3.1 3,6.6 4.7,9.3 0.7,1 1.5,2.6 2.6,3.3 l 1.7,1 m -39.6,-98 a 9.5,9.5 0 0 0 2.4,3.8 c 0.5,0.5 2.6,1.2 2,0.8 m -4.1,-6 c 1.8,0 2.6,3 4.9,3 m -5.2,-7.1 c 1.8,0.9 4,2 5.4,3.4 m -4,-6.3 c 0.5,0 3.2,1.9 3.2,2 m -4,12.6 c 1.4,0 2,1.1 3.1,1.7 0.3,0.1 1.3,0 1.5,0.3 m -5,0.3 c 0,2.5 0.3,5 0.3,7.6 0,1 -0.8,3.6 -0.8,3.6 m 56.8,79.3 c 4,4 7.6,8.2 12.3,11.5 1.9,1.3 3.5,2.2 5.4,3.2 a 6,6 0 0 0 2,0.7 h 0.5 m -31.9,-23.2 c 0,0.9 1,1.7 1.3,2.3 a 30,30 0 0 0 10.3,9.5 c 0.6,0.2 2.3,0.5 1.7,0.5 m -18.2,-18 c -0.8,0 -0.6,3 -0.4,3.5 1,3.2 4.3,7.4 6.5,10 0.7,0.7 1.2,1.6 2,2.3 0.3,0.4 1.7,1.3 1.2,1 m -15.3,-18.4 c 0,6.9 5.1,13 9.4,17.8 a 24.4,24.4 0 0 0 5,4 l 1.7,1 0.8,0.3 m 7.1,-9.7 c 0,1.2 1,2.2 1.6,3.3 2,3.2 4.9,6 7.8,8.4 a 7.8,7.8 0 0 0 3.8,1.8 c 0.5,0 1.8,-0.2 1.6,0 m -9.1,-12 c 0,0.7 1.6,1.9 2,2.4 2,2.4 5,5.7 8,7 1.1,0.4 2.2,1 3.4,1.3 l 1.3,0.1 m -7.6,-11.1 c 3,3 4.9,7 8.1,9.7 1,0.9 2.3,2 3.7,2.2 0.6,0.1 1.6,-0.2 1.6,-0.2 m -34.6,-5.4 c 0,0.7 2.4,2.6 2.9,3 3.1,2.7 5.9,5.3 9.8,6.8 1.2,0.5 2.5,1.2 3.9,1.3 a 188.4,188.4 0 0 1 1.7,0.2 M 190,223.6 c 0,0.8 1.9,2.3 2.4,2.8 2.5,3 6,6.4 9.5,8 1.3,0.6 2.7,1.2 4.2,1.3 h 1.8 m -24.3,-16.9 c 1,1 1.3,3 2.2,4.3 2.4,3.3 4.6,6.3 7.9,8.8 a 17.8,17.8 0 0 0 5.5,3 c 0.8,0.2 3.4,0.5 2.8,0.5 m -30.2,-15.2 c 0,5.3 2.5,10 6.6,13.4 1.3,1.1 2.8,2.3 4.5,3 0.6,0.2 2.7,0.4 2,0.4 M 169,213 c 0,1.8 1.8,4 2.7,5.4 a 35,35 0 0 0 14,11 33.5,33.5 0 0 0 6.7,2.4 l 2.4,0.6 m -21,-11.2 c 0,4 4.4,8.4 8,10 1.5,0.6 2.7,1.2 4.2,1.4 l 2,0.1 m 36,1.8 c 0.6,0 1.5,-1.8 1.8,-2.3 1.5,-2.6 3.4,-5.2 5.1,-7.7 l 1.8,-2.8 c 0.3,-0.4 0.5,-2 0.5,-1.4 m -42.7,14.2 c 1.8,0 3.7,1.3 5.4,1.8 3.2,1.1 6.6,2.6 10,3.2 2,0.3 4,0.4 6,0.4 0.8,0 3.1,-0.7 2.5,-0.4 m -27,-4.2 c 0.5,0 2.2,1.8 2.6,2.2 a 16,16 0 0 0 12.6,3.8 M 169,216.2 c 0,1.3 1.3,2.4 2.3,3.2 3,2.5 5.4,5 8.8,6.9 1.2,0.6 2.7,0.9 4,1.3 l 1.3,0.3 0.5,-0.1 m -20.8,-3.7 c 3,3 8.2,5.3 12,7 l 4,1.7 1.5,0.4 h 0.6 m 56.7,-9.2 c 0.5,0 0.3,-1.1 0.3,-1.5 0,-1.8 0,-3.5 -0.5,-5.2 -0.2,-0.5 -0.2,-1 -0.3,-1.6 v -0.8 m -14.9,18.3 c 0.6,0 2.6,-1.3 3.3,-1.7 3.7,-1.8 8,-4.5 8,-9.2 M 190.9,234 c 3.5,0 9,-2.6 12.7,-4.2 1,-0.5 3.8,-1.6 3.8,-3 m -6.8,8.6 c 2.1,0 5,-2.7 7,-3.6 0.8,-0.3 3.3,-1.8 2.9,-1.6 m -8.1,9.1 c 4.3,-1.5 8.6,-5 11.8,-8.1 a 28.7,28.7 0 0 0 3.7,-4.5 c 0,-0.1 0.7,-1.6 0.5,-1.6 m -10,13.7 c 0.6,0 1.8,-1.6 2.3,-2 l 7.5,-6.3 2.8,-2.7 c 0.3,-0.4 0.7,-1.8 0.7,-1.3 M 212,239 c 2.5,0 6.7,-5 8.3,-6.6 a 36.7,36.7 0 0 0 2.2,-2.4 c 0.2,-0.2 1,-1.5 0.8,-1 m -4,9.3 c 2.2,0 4.9,-3.8 6.2,-5.3 l 1.4,-2 0.3,-0.8 m -4,9.4 c 2.5,0 6.1,-5.2 7.5,-7.1 l 1.6,-2.5 0.9,-1.4 -0.3,0.4 m -2.9,9.6 a 67.2,67.2 0 0 0 7,-8.2 c 0.6,-1 1.5,-2.2 1.7,-3.3 l 0.3,-1.5 m -2.6,12.1 c 1.7,-2.5 3.8,-4.4 5.2,-7.3 0.5,-1 0.6,-2 0.9,-3 l 0.1,-1.2 m 2,7.1 c 0,0.6 0.3,-1 0.4,-1.6 0.2,-1.2 0.9,-2.3 1.3,-3.4 l 0.8,-1.7 m 2,2.5 c 0,-0.7 1,-2.3 1.3,-3.4 1,-3.3 2.7,-6.2 2.7,-9.7 m 0.7,7.4 c 0.8,0 0.9,-1.8 1.1,-2.6 a 72.8,72.8 0 0 0 2.4,-8.7 l 0.4,-3 0.1,-1.4 m -0.6,11.8 c 0,-0.2 1,-1.3 1,-1.6 l 2.8,-6.4 c 0.5,-1 0.9,-2.1 1,-3.1 l 0.3,-1.5 m -0.2,7 c 0.4,0 0.7,-1.3 1,-1.7 1.2,-1.6 2,-4.3 2.3,-6.4 0.2,-0.8 0.1,-3.2 0.1,-3 m 2.3,4 c 0.9,-1.9 0.2,-4.5 1.1,-6.2 0.2,-0.4 0,-1.6 0,-2 l -0.2,-0.7 m 1.5,5.6 c 0,-2.2 0.8,-4 0.8,-6.3 l -0.1,-2.3 v -1 m 2.7,3.4 a 77,77 0 0 0 1.8,-6.1 c 0.2,-0.8 0,-3 0,-2.8 m -112.3,17 c 2,0 4.1,0.4 6,0 0.7,-0.2 1.8,-0.7 2.1,-1.2 0.2,-0.2 0.8,-1 0.7,-0.7 m -3,2.8 c 3.5,0 8.4,-2.1 11,-4.7 m -6.8,8.6 c 3.2,0 5.3,-1 8.2,-2.7 0.5,-0.3 2.7,-1.5 2.7,-2.2 m -4.8,8.3 c 2.5,0 5.2,-2.7 6.6,-4.5 0.5,-0.6 1.6,-1.5 1.6,-2.2 m -2.4,7.4 c 1.2,0 2.6,-0.7 3.8,-1.2 l 1.2,-0.6 0.4,-0.4 m -4.5,6.5 c 1.5,-1.5 3.5,-2.8 5.2,-4.2 0.3,-0.2 1.7,-1.3 1.7,-1.5 m -4.2,10.8 6,-5.4 c 0.7,-0.7 2,-2 2,-3 m -1.3,7.6 c 2.6,0 5.8,-2.4 7.2,-4.5 0.2,-0.3 1.9,-3.8 0.7,-3.8 m -3.5,10.3 a 10,10 0 0 0 7.3,-3.8 c 0.6,-0.7 1,-1.4 1.4,-2.2 0.2,-0.4 0.4,-1.9 0.4,-1.4 m -2.8,10.7 c 2.8,-2.8 6.8,-7.1 6.8,-11.5 m -0.9,9.3 c 0.4,0 1.1,-1 1.4,-1.2 1.7,-1.7 2.7,-3.9 3.8,-6 0.3,-0.7 0.6,-1.5 0.7,-2.2 v -1 m -0.3,10 c 1.8,-2.8 4.2,-6.6 4.2,-10.1 m 2.6,12.2 c -0.4,-0.4 0,-1.7 0,-2.2 v -6.6 m 4.9,11 c 0,-2.3 -2.1,-5.5 -2.8,-8 l -0.8,-2.7 c -0.1,-0.5 -0.3,-1.8 -0.3,-1.3 m 9,12.8 c 0,-0.7 -0.7,-1.4 -1,-2.2 -0.8,-2 -1.7,-3.9 -2.3,-5.9 -0.3,-1 -0.7,-2.1 -0.9,-3.2 l -0.3,-1.5 m 8.3,8.6 a 24.6,24.6 0 0 1 -3.7,-4.8 c -0.4,-0.6 -0.5,-1.3 -0.8,-1.8 -0.2,-0.3 -0.1,-1.2 -0.1,-0.9 m 7.5,7.8 c 0,-0.6 -0.8,-1.3 -1,-2 -1,-1.7 -2.3,-4.2 -2.3,-6.2 m 7,4.9 c 0,-1.4 -1.8,-3.8 -2.2,-5.7 l -0.2,-2 v -1 m 2.9,10.3 c 0,0 0.4,-0.1 0.5,-0.3 0.2,-0.8 0.7,-1.5 1,-2.2 0.6,-1.5 1,-4 0.7,-5.6 -0.1,-0.4 -0.2,-1.5 -0.6,-1.5 m 3.6,5.8 c 0.3,0 0.8,-1.4 0.9,-1.8 0.5,-2 1.8,-4 1.2,-6.3 a 5.8,5.8 0 0 0 -0.7,-1.7 c -0.2,-0.2 -1,-0.6 -0.6,-0.6 m 3.7,6.2 c 0.3,0 0.3,-1.8 0.3,-2 0.7,-1.8 0.7,-4 0.7,-6 a 3,3 0 0 0 -0.7,-1.6 4.9,4.9 0 0 1 -0.2,-0.6 m 3.8,1.7 c 0,-2.1 -0.8,-4.5 -0.8,-6.7 m 6.7,2.7 0.3,-2.5 c 0.4,-1.7 0,-3.6 -0.2,-5.2 0,-0.4 -0.4,-1.5 -0.9,-1.5 m -13.6,24.8 c 0,-3 -0.5,-5.6 -2,-8 -0.3,-0.3 -0.3,0.8 -0.5,0.4 m -2,10.3 c 1.2,-1.2 0.3,-7.2 -0.8,-8.3 M 149.8,189 c 1,0 2.6,1.4 3.4,2 a 68.3,68.3 0 0 0 9,6 c 0.5,0.2 4,1.8 4,2.3 m -11.8,-1.5 c 2.1,2.1 7.2,3 10,3.5 l 3.6,0.7 m -9.5,0.4 c 1,0 2.2,0.8 3.3,1 2,0.2 4,0.1 6,0.1 0.3,0 3,-0.2 3,-0.5 m -13.8,3.9 c 3,0 6,0.8 9.2,0.5 1.6,-0.1 3.3,-0.6 4.9,-1 0.7,-0.1 1.7,-0.9 2.2,-0.9 m -11.5,5 c 3.5,0 6.4,-0.4 9.9,-1.6 a 7.6,7.6 0 0 0 2.6,-1.4 l 1.1,-1.1 m -13.1,7.5 c 3.6,0 7.5,-1.8 10.9,-3 1.3,-0.3 2.6,-0.8 3.8,-1.4 0.5,-0.4 2.1,-1.2 1.5,-1.2 m -12.6,7.4 c 0,1 3.5,0.8 4,0.7 a 30.9,30.9 0 0 0 8.3,-2 c 0.6,-0.3 3,-1.9 3.5,-1.9 m -16.4,8 2.5,-0.6 c 3,-0.3 5.8,-1.1 8.6,-1.8 a 20.3,20.3 0 0 0 5,-2 l 1.5,-0.9 c 0.2,-0.2 0.4,-1 0.4,-0.7 m -10.7,6.5 a 24.7,24.7 0 0 0 14.7,-3.1 c 0.4,-0.3 1.2,-1.4 1,-1.2 m -14,7.7 c 0.6,0.6 2.6,0.3 3.3,0.3 3.5,0 7.1,-1.3 10.5,-2 1,-0.2 2.5,-0.6 3.2,-1.3 l 1,-0.9 m -13.1,6.8 c 3.4,0 6.8,0 10.2,-1.1 l 3.5,-1.3 c 0.5,-0.2 1.5,-1.5 1.2,-1 m -8.9,4 c 0,1 2,0.6 2.7,0.6 3,0 6.7,-0.8 9.5,-1.9 1,-0.3 1.7,-0.8 2.5,-1.3 0.4,-0.2 1.2,-1.2 1,-0.9 m -12.5,8.8 c 0.8,0 2.1,-0.8 2.9,-1.1 3.2,-1.4 6.6,-2.2 9.8,-3.7 a 8.3,8.3 0 0 0 3,-2.5 c 0.2,-0.3 0.5,-1.7 0.5,-1.2 m -11.8,9 c -1,1 3,0.7 3.1,0.7 4.3,-0.5 8.7,-1 12.9,-2 0.8,-0.2 2.2,-0.5 2.8,-1.1 0.4,-0.4 1,-1.6 0.8,-1.3 m -70.7,-41.2 c 0,1.2 1.3,2.4 1.8,3.4 1.1,2.5 2.8,4.8 4.2,7.2 0.8,1.3 1.2,2.8 1.8,4.2 l 0.4,1.5 0.2,0.5 m -3,-15.8 c 0,0.8 1.7,2.2 2.2,2.8 1.9,2.2 3.2,5 5,7.2 0.8,0.9 1.4,1.9 2.3,2.7 0.4,0.4 2,0.8 1.4,0.8 m -8,-13.5 c 2.1,2.8 4.7,5.2 6.6,8.2 1.2,1.8 2.5,4.2 3.8,5.5 m -10.1,-19.2 c 0,1 1.6,2.3 2,3 2.6,3.2 5.5,6.5 7.9,9.9 0.5,0.7 2.2,3.7 3.2,3.7 m -13.5,-18.3 c 3.2,3.2 6.3,6.7 9.5,10 a 15.7,15.7 0 0 0 3.6,2.7 c 0.4,0.2 0.9,0.5 1.4,0.6 h 0.6 m 35.3,28.9 c 0.7,0.4 1.3,2.2 1.5,3 1,2.5 1.8,5.2 1.8,8 0,1.1 0.1,2.3 -0.1,3.4 l -0.2,1.3 m 1.4,-16.4 c 0.6,0.6 0.8,2.9 1,3.8 0.8,3.3 1.4,6.3 1.4,9.7 0,1.3 0,2.8 -0.5,4 -0.2,0.4 -1,1 -0.5,1 M 210,224 c 0,5.3 1.5,10.5 0.2,16 -0.1,0.8 -1.3,5 -2.2,5 m 5,-20.3 c 1.5,3 1.4,7 1.4,10.3 0,3.6 0.1,7.4 -1.3,10.8 -0.2,0.4 -1.4,1.7 -1.4,2 v -1.3 m 4,-18.8 c 0,-0.6 0.5,1 0.8,1.4 0.4,1 0.9,2 1.1,3 0.8,3.2 0.9,6.5 0,9.7 -0.3,0.9 -1,2.8 -2,2.8 m 3.6,-20.7 c 0,1 0.9,2.4 1.1,3.3 1,3.6 2,7.5 2,11.2 0,0.7 -1,4.7 -1.8,4.7 M 223,226 c 0.4,0.4 0.5,1.6 0.8,2.2 1.5,3 2.6,6.4 2.2,9.7 -0.2,1.3 -0.5,2.6 -1,3.8 0,0.2 -1.3,1.7 -1.3,1.3 m 3.6,-16.5 c 0,2 1.8,4.5 2,6.7 0.4,3 0.3,6 0,8.8 -0.1,1.3 -0.8,2.7 -0.8,3.8 m 2.7,-17.2 c 0.4,0 0.7,2.4 0.8,2.7 0.6,2.4 1.3,5.3 1,7.8 -0.2,0.7 -0.7,1.4 -0.7,2 m 2,-14.4 c 0,0.7 1.4,2.5 1.7,3.3 1,2.1 1.4,5 1,7.4 -0.2,2.2 -0.6,4.4 -1.6,6.4 -0.2,0.4 -0.7,-1 -0.6,-0.6 m 2.8,-17.8 c 0,-0.4 0.3,0.9 0.4,1 l 0.7,2.8 c 0.6,2.3 2,6.2 1.3,8.7 -0.3,0.8 -0.3,1.6 -0.6,2.3 l -0.4,1.1 m 1.4,-17.4 c 0,2.8 2.1,5.8 2.5,8.8 0.2,1.6 0.3,3.2 0.3,5 0,0.4 -0.7,1 -0.4,1.3 m 0,-18.2 c 0,1.4 1,3 1.2,4.3 0.7,3 1.4,6.2 1.4,9.2 m 1.8,-17.3 c 0.5,0 1.3,1.8 1.5,2.3 1.5,3 2.2,5.8 2.2,9.2 0,0.7 -0.5,3.3 -1.3,3.3 m 1.9,-16.6 c 2.5,2.5 2.4,7.6 2.4,10.8 0,1 -0.8,3.8 -2,3.8 m 3.7,-17.4 c 0.5,0 0.8,1.6 1,2.1 1.1,2.2 2,5.8 1.6,8.3 -0.1,0.5 -0.3,2 -0.8,2.2 -0.4,0.2 -0.6,-0.3 -0.6,-0.2 m 1,-16 c 0.3,-0.4 1.2,1.2 1.3,1.5 a 18,18 0 0 1 1.6,6.6 c 0,0.8 0,1.6 -0.4,2.3 -0.2,0.3 -1.2,0.8 -0.8,0.8 m 1.8,-14.3 c 1.6,1.7 1.9,5.4 2.3,7.7 0.2,0.7 0.2,2.4 0,3 -0.2,0.3 -0.7,-0.2 -0.5,0 m 0.2,-12 c 2.1,2.1 1.5,7.2 1.5,9.9 m -0.4,-14 c 0.4,0 1,1.2 1.2,1.6 a 18.6,18.6 0 0 1 2.3,5.2 l 0.2,2 c 0,0.3 -0.4,0.8 0,0.8 m -0.4,-12.1 c 0.5,0 0.8,1.9 1,2.2 1,2 1.3,5.2 1.3,7.1 m 0,-13.1 c 0.4,0.4 0.6,1.6 0.8,2.2 0.5,2.3 1.4,4.5 1.4,6.8 m -1.5,-13 c -0.3,0 0.2,1.6 0.3,1.7 0.8,1.5 1.6,3 2.1,4.6 0.1,0.4 0.7,2.2 0.5,2 m -0.8,-10.8 c 1.7,0 2,4.3 2,5.7 m 1.1,-10.7 -0.3,-0.9 c -0.5,0 0.4,0.9 0.6,1.3 l 0.8,2 0.4,1.7 h -0.3 m -1.5,-9.8 c 0,-0.7 1.5,0 1.8,0.3 0.9,1 1,2.4 1,3.8 m -1.3,-7.9 c 1.2,0 3.1,4.7 3.1,5.7 m -3.6,-11.8 c 1,0 3,2.8 3,3.7 m -1.8,-8.8 c 0.2,0 0.7,0.8 0.8,1 0.7,0.9 1.8,3.5 2,3.8 m -0.8,-7 c 0.6,0.6 2,3 1.4,3.7 M 139.6,129.7 c 0,0.6 1.1,1.7 1.4,2.2 1.2,2 2.3,4.3 3.8,6.1 0.4,0.5 2.3,2.3 2.3,3 m -6,-6.4 c 0,0.5 1.3,1.4 1.5,1.8 1.2,2 3,3.5 4,5.7 0.2,0.4 1.7,2.7 1,2.7 m -7.2,-5.5 c 0,0.6 1,1.5 1.4,2 1.6,1.6 3.2,3 4.6,5 0.4,0.4 1.6,1.3 1.6,1.8 m -8.7,-5.2 c 2,2 5,3.8 6.8,6.4 0.3,0.4 1.6,1.5 1.6,1.9 m -8.6,-4.3 c 0,1.8 5.2,4 6.6,4.6 0.7,0.3 1.6,1.3 2.4,1.3 m -8.8,-1.8 c 2.1,0 5.2,3.8 7.2,4.8 0.6,0.3 1.7,1.2 2,1.6 0.2,0.1 0.6,0.6 0.6,0.4 m -9.6,-2.5 c 2.5,1.2 5,1.6 7.3,3.4 0.5,0.4 2.2,1.5 2.2,2.2 m -11.4,-2.2 a 5,5 0 0 1 1.5,0.7 c 1.8,1.3 4.6,1.4 6.5,3 0.4,0.3 2.2,1.1 2.2,1.7 m -10,-1.2 c 1,1 5.3,2 7,2.5 a 8,8 0 0 1 3,1.3 M 138,166 c 2.4,0 5.8,2.8 7.9,4 0.7,0.4 1,1.2 1.6,1.6 l 0.6,0.8 m -7.3,-0.3 c 3.1,0 6.3,3 9.2,3 m -9.7,0.4 c 2.1,0 6,1.6 7.9,2.5 0.4,0.3 2.4,0.7 2.4,1.1 m -9,-0.2 c 0.5,0 1.2,0.8 1.6,1 l 5,2.5 1.8,1.2 0.7,0.8 m -9.9,-1 a 59.7,59.7 0 0 0 6.1,5.3 l 2.6,1.5 m -9,-3.1 c 0,0.7 1.7,2 2.3,2.5 1.6,1.6 2.6,3.8 4.2,5.4 0.5,0.5 1.4,1.9 2,1.9 m -7.6,-2.2 c 0.5,0 0.8,1.2 1.1,1.5 l 3.7,4.9 c 0.5,0.6 1,1.5 1.7,1.9 0.3,0.2 1.4,1 1.1,0.6 m -3.3,-8.9 c 0,1.9 2.5,4.4 3.5,5.8 l 1.3,1.5 0.8,0.4 m 12.3,4 c -0.8,1 -1.1,3.4 -1.1,4.5 0,4.6 1.9,8.2 3.3,12.3 0.5,1.5 1.4,2.7 2,4 0.4,0.7 1.8,1.9 1.3,1.6 m -1.3,-18.5 c 0,1.9 1.5,4.7 2,6.6 1,3.3 1.1,6.7 1.5,10.1 0.1,1.6 0.6,3.3 1.2,4.9 0.2,0.5 0.6,1 0.7,1.5 l 0.4,0.5 m -1.4,-23.8 c 0,2.5 1,5.1 1.6,7.5 0.8,3.5 1.2,7 2,10.5 0.3,1.3 1,3 1.7,4 0.4,0.5 1.3,1.6 1.3,2.1 m -3.6,-21.7 c 0,5.9 1.1,11.6 3.2,17 0.4,1 1.4,5.7 2.9,5.7 m -4.1,-21.5 c 0,2.3 1.2,4.5 1.5,6.7 0.4,2.6 1.4,5.6 2.3,8.2 l 1.3,5 0.6,1.7 0.5,0.7 m -1.2,-20.6 c -1.1,1.2 -0.1,5.9 0.1,7.3 0.7,4.4 1.7,8.8 2.4,13.1 0.3,1.6 1.9,3 1.9,4.5 m 0.2,-24.8 c -0.2,0 -0.3,1.2 -0.3,1.4 -0.2,1.4 -0.2,3 -0.2,4.5 a 49,49 0 0 0 1.7,15.4 c 0.3,0.7 1.5,4.3 2,4.3 m 0.3,-23.7 -0.1,0.8 0.1,1.7 c 0,1.8 0,3.6 -0.3,5.4 -0.5,3.9 0.7,8.2 1.4,12 0.1,0.8 1,2 1,2.6 m 0,-17.7 v 0.5 l 0.4,1.5 a 62,62 0 0 1 1.6,15.2 c 0,0.3 -0.1,3.2 0.4,3.2 m 0.3,-21.8 c -0.5,0 0.8,3.4 0.9,3.8 l 1.5,7 c 0.4,2.1 0.9,5 0.5,7.3 l -0.3,3.1 c 0,0.3 -0.7,1 -0.3,1 m -0.7,-20 a 27,27 0 0 1 6,16.5 l -0.1,1.8 M 200,30.2 c 0,0 -17.6,3 -21,35 -3.3,32 -25.3,46.6 -38,32 m -2.6,60.1 v 7.3 c 0,1 0.2,4 0,3 m 3.1,-7.4 -0.8,3.3 c -0.6,3.7 -1.4,7.3 -1.4,11 0,1.2 -0.2,2.4 0,3.5 0.1,0.5 0.4,2 0.4,1.5 m 3.5,-11 c 0,3 -1.5,5.6 -1.9,8.4 -0.3,2.4 -0.3,4.8 -0.3,6.9 m 2.1,-12.5 c 0,2.5 -0.7,5.6 -1,8.2 -0.3,3.4 0.6,7 0.6,10.1 M 144,178 c 1.6,3 1.3,8 1.3,11.3 0,1.2 0.3,2.5 0.3,3.8 0,0.5 0.6,2 0.6,1.5 M 148,179 c 0,4.9 -0.7,10 -1.2,15 -0.2,2.4 -1,4.7 -1,7.2 0,1.7 -0.1,3.7 1,5 0.2,0.4 0.6,1.5 1,1.5 m 3.4,-18.4 c 0,6.2 -1.3,12.4 -2,18.5 -0.2,0.8 -0.2,1.8 0,2.5 0,0.4 0.7,0.4 0.7,0.8 m 2.3,-22 c 0,2.3 0.5,5 0.8,7.2 0.4,3.6 -0.3,7.3 0,11 0.1,0.6 0.7,5.3 1.4,5.3 m 1.6,-16.4 c 0,6.3 0.4,12.8 1.2,19.1 0.2,1.6 0.9,3.3 1.6,4.7 0.2,0.5 1.3,1.5 1.3,2 m 1.6,-21 c -2.6,7.5 0.9,14.8 2.3,22.5 0.2,1 1.1,3.6 1.1,4 m -7.4,-26.8 c 0,6.4 2.2,13 3,19.4 0.2,1.6 0.9,3.2 1.3,4.6 0.1,0.4 1.3,0.4 1,0.7 m 3.2,-19.5 c 0,6 -1,12 0.3,18 0.2,1.2 2,5.6 3.5,5.6 M 201,25.2 c 0,0 -20.9,5 -20,25 1,20 -0.6,39.6 -8,46 m 33,-72 c 0,0 -13.4,-12.5 -25,12 -11.5,24.4 -4.4,45.8 -18,52 -13.5,6.1 -18,7 -18,7 m 63,-73 c 0,0 -27.6,-4.2 -35,24 -7.3,28.2 -4.8,38.6 -25,45 m 26,-52 c 0,0 -5.8,20.8 -13,39 m -6,8 c 0,0 -13,0.5 -9,11 4,10.5 10,16 10,16 m 59.3,78.6 c -0.6,0 -1.5,3 -1.7,3.6 -1,3.8 -1,8 -1,11.8 m 6.9,-13.6 c 0,3.8 -5,7.3 -6,10.8 -0.4,1 0.2,2.8 0.7,3.6 0.3,0.5 1,2 0.6,1.7 m 9.2,-12.9 c -1,0 -2,1.8 -2.6,2.6 a 64.1,64.1 0 0 0 -4.2,9 c -0.4,1 -0.6,2 -0.8,2.8 0,0.3 0.4,1 0,1 m 9.8,-17.8 c 0,1.6 -0.9,4.2 -1.5,5.7 -0.9,2.4 -1,5.4 -1.2,7.9 -0.1,0.6 -0.8,3.6 -0.4,4 m 7.5,-17.3 c 0,4.5 -2.7,9.3 -3.8,13.5 -0.3,1 -1.2,2.6 -1.2,3.4 m 7.3,-15.3 c 1,0 1.6,2.8 1.6,3.6 0,2.9 -1.5,4.8 -2.7,7.2 -0.4,0.7 -2,2.3 -2,3 m 6.4,-15.2 c 0.5,0 0.8,2.8 1,3.2 1,4 -1,7.8 -2.4,11.3 -0.4,1 -1.1,1.9 -1.6,2.9 -0.2,0.5 -0.7,2 -0.7,1.4 m 14.6,-48.4 c 0.4,0 1.5,2.7 1.7,3 1.2,2.6 3.2,6 3.2,8.7 M 137,112.2 c 0,0 13.2,25.2 2,45 m -3,-40 c 0,0 10.4,21.5 -4,46 m 20,-80 c 0,0 -18.3,10.7 -6,24 12.4,13.3 8,14 8,14 m 57.4,72.3 c 0,-0.3 1.3,1.1 1.4,1.6 0.3,1.7 0.5,3.3 0.5,5 0,3.3 -0.3,6.4 -0.7,9.7 0,0.4 -0.3,2.5 -0.5,2.7 0,0 -0.3,-0.2 -0.2,0 m 2.3,-17.5 c 1.4,0 1.6,3.2 1.7,4 0.5,4.4 0,8.8 0,13 m 1.1,-14.7 c 0,-0.3 1.5,3.3 1.6,4 0.6,2.6 1,5.2 1,7.9 0,0.6 0.2,2.3 -0.3,2.7 m 1.3,-15.7 c 0,0.6 0.6,1.4 0.7,2 l 0.8,5.5 c 0.4,3.2 -0.9,6.5 -0.9,9.4 m 2.9,-17.4 c 1,0 1.4,3.4 1.5,4.2 0.4,4.7 0,9.2 -1,13.8 l -1.3,5.2 m 4.2,-20.8 c 0.6,0 1,2.6 1.1,3 a 23.7,23.7 0 0 1 -1.2,13.2 l -0.6,1 m 2.6,-17.6 c 0.7,-0.7 1.7,1.7 1.9,2 1,2.5 0.8,5.2 0.8,7.8 m 0.7,-11 c 0.5,0 0.9,2 1,2.4 0.8,2.7 0.2,5.6 0.2,8.3 m -24.6,-17.5 c 0,5.1 0.9,10.5 0.9,15.7 m 27.1,-36.3 -0.2,0.6 v 1.2 c -0.5,1.4 -0.6,3 -1,4.4 a 27,27 0 0 1 -3.4,7.5 m -26.8,9.5 c 0.7,0 1,2 1.2,2.5 l 2.1,7.5 c 0.2,0.8 0.6,2.5 1.4,2.5 m -1.2,-11.9 c -0.4,0 0.4,0.8 0.5,1.3 0.2,0.7 0.5,1.4 0.6,2.2 0.3,2.2 0.5,4.5 1,6.8 l 0.2,2.6 v 1.4 m -7.7,-41.1 c 0,0.8 0.5,1.7 0.7,2.4 1.2,3.7 1.4,8 3.2,11.7 m 1.8,-11.5 c -0.2,0 0.3,2 0.3,2.1 l 0.9,4.5 c 0.3,2.2 0.4,3 1,4.9 m 1.6,-13.7 c 0,2.2 0.6,4.3 1,6.4 l 1.4,8.3 m 1.9,-11.7 c 0,1.2 0.7,2.4 0.9,3.6 0.3,2.8 1.2,5.8 2,8.4 m 0.9,-9.9 c 0.7,0.8 1.2,2.2 1.6,3.3 1,2.5 1.7,4.7 1.7,7.3 m 1.2,-12 c 0,4.8 3.8,6.7 3.8,11 m 0.4,-11 c 0,3 2.2,7.3 3.4,10.1 l 0.9,2.4 c 0,0.2 -0.1,0.7 0.1,0.7 m 5.3,-11.3 c 0,-0.4 -0.3,1 -0.4,1.4 l -0.5,2.8 c -0.4,2.8 -3.4,4.2 -3.4,7 m 6,-8.3 -0.5,1.2 c -0.4,0.8 -0.5,1.9 -0.9,2.7 a 56.9,56.9 0 0 0 -1.8,5 m 5.7,-6.4 c 0,1 -1,1.7 -1,2.7 -0.3,1.2 -0.4,4.1 -1.5,4.6 m -43.4,-16.4 c -0.3,0 -0.8,3.1 -0.9,3.4 -0.8,2.7 -1.5,7.3 0.5,9.4 m 6.3,-14.2 c 0.6,0 0.3,3.1 0.3,3.6 0,3 0.4,6.6 0.4,9.6 m -3.1,-14.9 c 0,-0.7 -1,1 -1.4,1.5 -1,1 -2,2 -2.8,3.1 -1.6,2.6 -2.4,9 -2.4,11 m 6.9,-13.7 c 0,1.5 -1.1,3.3 -1.5,4.8 -0.5,1.8 -0.7,3.8 -0.9,5.8 l -0.3,3.8 M 197,169 l -1,1.3 -1.6,2.7 a 35.5,35.5 0 0 0 -3,6.8 v 3 m 9.2,-13.3 -1.4,0.7 c -1,1 -2.4,1.9 -3.2,3.4 -1,2 -2,3.7 -2.3,6 0,0.3 0,3.1 -0.4,3.1 m 10.6,-15.5 c -0.6,0 -1.4,1.8 -1.8,2.3 -2,3 -4,6.1 -5.9,9.4 -0.8,1.4 -1.9,2.8 -2.3,4.3 0,0.2 -0.5,2.4 -0.2,2.4 m 14.4,-20.7 -2.1,3.4 c -2.4,3.3 -3.3,7.7 -4.9,11.5 -0.3,0.8 -0.6,1.2 -0.2,1.6 M 211.3,166 c -0.4,0 -1.7,1.5 -2,1.8 -2.8,2.7 -3.8,6.4 -5.7,9.8 -0.6,1 -1.1,2.5 -1.6,3.6 m 11.9,-18 c 0.3,0.2 -0.4,1.6 -0.5,2 -0.8,2.3 -2.5,4.6 -3.8,6.6 -1.6,2.5 -2.4,5.7 -3.6,8.4 m 8.8,-13.6 -0.2,0.5 -0.5,1.3 -1.7,3.6 c -1.8,4.3 -2.1,4.3 -3.4,8.2 m 9.3,-15.2 c 0,1.2 -1,3 -1.4,4.2 -0.9,2.5 -1.5,5.3 -2.5,7.6 l -0.8,2.2 c -0.1,0.8 -0.1,1.5 0.3,2 m 4.6,-12.7 c 0.5,0.5 0.3,2.3 0.3,3 0,3 -2,6.1 -2,9 m 5.7,-13.8 c -0.6,0.6 -0.8,1.9 -1,2.7 l -1.6,8.2 c -0.4,2 -0.1,2 -0.9,3.8 m 5.5,-13.1 c 0,5 -2,10 -2,14.6 m 4,-14.9 v 5.5 c 0,3.5 0.5,4.4 0.5,7.9 m 1,-13.7 c 0,3.5 2.1,7.1 2.8,10.6 0.5,2.4 0.2,1.9 0.2,4 m -0.6,-12.7 c 0,1.8 3.1,4 3.6,5.8 0.9,3.2 0,5.4 0,8 m -1.6,-13.4 c 0.8,0.8 1.2,2.2 1.7,3.2 1.7,3.3 3.1,7.4 3.1,11.2 m -3,-16.2 c 1.9,5.4 5.2,11.2 5.2,16.9 M 237,170.5 c 0,0.7 1.1,2 1.5,2.7 1,1.6 2.3,3.6 2.8,5.5 0.4,1.7 0.7,3.3 0.7,5 0,0.7 -0.5,1.5 0,2 m -3.7,-18.2 c 0,1.2 1.6,2.7 2.3,3.6 a 24.2,24.2 0 0 1 2.7,5.8 c 0.5,1.7 0.8,3.6 0.8,5.4 0,0.2 0,3 0.2,3 m -4.1,-17.5 c 0.5,0 1.4,2 1.5,2.4 1.1,2.6 2.6,4.9 3.4,7.5 0.3,0.8 0.5,1.7 0.5,2.6 l -0.2,1.3 m -0.5,0.5 c 0.9,0 2.1,2.6 2.5,3.4 1.7,3.3 3.9,6.5 5.7,9.6 0.4,0.8 3,3 4,3 M 245.2,178 c 0,1 1.2,2 1.7,3 1.2,2.6 2.6,5.3 4.4,7.6 0.7,0.9 1.3,2 2,2.8 0.4,0.3 5.1,4.8 4.6,4.8 m -10,-16.3 c 0.6,0 2,2.4 2.4,3 1.8,2.1 5.5,9.3 8.6,9.3 m -16,-22 c 0.6,0 2.1,4 5,7 1.4,1.4 3.6,2.5 5,4 0.3,0.2 1.4,0.8 1.4,1.2 m -60,-12.3 c 0,-0.3 0.5,0.6 0.5,0.7 l 0.3,2.7 0.3,7.3 m 56.9,1.5 c 1.2,0 2.2,2.3 2.8,3.1 2.8,3.8 -0.2,8.4 -0.2,12.3 m -4.4,-17.5 c 3,3 4.7,9.2 4,13.4 -0.2,0.6 -0.2,4 -0.9,4 M 245,176.8 c -0.5,0 0.8,3.2 1,3.7 0.7,2.1 0.6,4.5 1.3,6.5 0.3,1 -0.4,3 -0.7,4 -0.2,0.4 -0.1,0.9 -0.3,1.3 v 0.6 m 0,-15.8 c 0.7,0 1.8,2.3 2.3,2.9 3.5,4.4 3.4,8.6 3.4,13.7 m -68,-12.5 c 0,3.7 -2.8,8.7 -5.4,11.2 -0.8,0.8 -2,1.8 -2.6,2.7 -0.2,0.3 -1.6,0.7 -1.5,0.7 m 8.8,-16 c -1,1 -1.2,3.5 -2,4.6 -1.6,3 -3.4,5.7 -5.1,8.6 -0.7,1.2 -2,2.8 -3.4,3.2 l -2,0.5 M 244.2,176 c 1.3,0 2.4,2.6 3,3.6 2.3,4 1.8,7.9 1.8,12.5 m -62.4,-16.2 c 0,5.4 -1.5,11.7 -5.1,15.5 l -2.3,2.2 c -0.2,0.2 0,0.8 -0.4,0.8 m 9.6,-19.8 c 0,3.8 0.9,6.5 -0.9,10.2 -1.2,2.4 -3,4.7 -4.4,7.1 -0.3,0.5 -1.4,1.5 -1.4,1.7 m 1.5,-16.2 c 0.5,-0.6 0.5,4.7 0.5,5.4 0,2.1 -0.3,5 0.3,7 0.2,0.7 0.7,1.7 0.7,2.5 m 0,-16.5 c 0,-0.3 0.6,1.2 0.7,1.5 0.3,1.1 0.5,2.5 0.6,3.7 0.3,2.7 0.1,8.2 1,10 m -0.1,-15 c 0.4,0 0.9,3 1,3.5 l 0.5,2.7 0.3,2 c 0.3,2.1 0.1,4 -0.5,5.8 -0.2,0.5 -0.5,1.4 -1,1.4 m 3,-18.3 c 0,2.9 0.4,5.7 0.4,8.6 0,0.8 0.2,2.3 0,3.1 -0.4,1 -0.3,1.9 -0.7,2.7 -0.1,0.3 -0.6,0.4 -0.6,0.7 m 2,-16.3 c 0,-0.2 0.6,1 0.7,1.2 0.3,0.9 0.8,2 0.8,3 l 0.2,2.7 c 0,2.8 -0.3,5.1 -1.1,7.6 -0.1,0.3 -0.5,1.6 -0.7,1.6 m -6.7,-14.2 c -0.4,-0.5 -1.5,2.5 -1.6,3 -0.4,1.9 -1.2,3.7 -1.6,5.5 -0.3,1.6 0.4,3.3 0.4,4.8 0,0.4 0,4.1 0.2,4.1 m 62.8,-84.7 c 0.2,0 0,-1 0.2,-1.2 0.5,-1 0.3,-2.8 0.3,-4 m 4,4.8 V 105 a 9.5,9.5 0 0 1 -0.6,-3.2 m 3.8,4.5 c 1.2,0 0.2,-5 0.2,-5.6 m 4.3,5.5 c 0.2,0 0.3,-1.2 0.3,-1.4 0,-1.2 0,-2.9 -0.7,-3.6 m 3.5,4.8 c 0.7,0 1.3,-2 1.3,-2.7 l -0.1,-1.1 m 2,4.8 c 1,0 1.2,-2.6 1.2,-3.3 m 1,4 c 0,-0.2 0.8,-0.8 0.9,-1.2 0,-0.4 0.6,-2.3 0.3,-2.7 -0.2,-0.1 -0.1,0.2 -0.1,0.2 m -98.6,8.8 c 0,-1.4 0.5,-2.8 0.5,-4 m 2.5,1.8 c 0,-1.3 0.8,-4.5 2,-4.5 m 1.5,2.7 c 0,-1.4 1,-4.9 2.1,-4.9 m 2.1,3.7 c -1,-1 0.7,-3.1 1.4,-3.8 l 1.2,-1.5 m 2,3.9 c 0,-1 0.4,-2.8 1.1,-3.5 0.1,0 1,-1.8 1,-1.3 m 1.7,3.5 1.5,-3.4 c 0.1,-0.3 1,-1.2 1,-0.8 m 0.8,3.8 c 0.6,-0.6 0.7,-2.3 1.3,-3.1 0.3,-0.5 1,-0.7 1,-1.2 m 1.1,5 c 0,-1.4 1.4,-4.9 2.7,-4.9 m 2,4.8 c 0,-1.4 1,-5.3 2.1,-5.3 m 0.7,6.2 c 0,-2 2.3,-5.2 2.3,-5.2 m 1,6.4 c 0,-1.4 1.2,-2.8 1.2,-4 m -29.7,13 c -0.6,0 -1.7,-0.5 -1.7,-1.2 m 4.2,-1 c 0,-0.6 -1.8,-0.8 -0.8,-0.8 m 4.9,-1.7 c 0,-0.3 -1.6,-0.1 -1.6,-0.8 m 6.4,0 c 0,-0.8 -1.4,-1 -1.4,-1.1 m 60.9,5 c 0.5,0 1.3,-1.6 2.2,-1.6 m 2.6,1.4 c 0.8,0 1.3,-0.6 2,-0.6 m 2.6,2 c 0.5,0 1.7,-0.7 1.3,-0.7 m 2.2,2.5 a 8,8 0 0 1 1.6,0.1 m -76.2,57.8 c -1.3,0 -2,1.8 -2.8,2.9 -1.8,2.3 -4.2,7 -4.2,9.7 M 247,117.2 a 2,2 0 0 0 2,2 v 0.5 c 0,1.4 -0.9,2.5 -2,2.5 -1.1,0 -2,-1.1 -2,-2.5 0,-1.4 1,-2.5 2,-2.5 z m -7.8,-10 c 1.5,-0.2 2.5,-5.9 3.6,-5.9 m -0.7,6 c 0,-0.1 1,-0.7 1.2,-1 0.2,-0.6 0.6,-1.8 1,-2.2 0.4,-0.4 0.9,-3 1.1,-3 m 0.6,5.8 c 0,-0.4 1.7,-3.7 2,-4 0.4,-0.4 0.4,-1 0.6,-1.3 0.2,-0.1 0.3,-0.9 0.3,-0.9 m 1,5.3 c 0.2,0 0.5,-1 0.7,-1.3 0.7,-1 2.1,-3.2 2.1,-3.8 m 0.8,4.7 c 0.7,0 2.7,-3.8 2.7,-4.3 m 2,3.5 c 0,-0.8 0.4,-2 0.9,-2.6 0.1,-0.1 0.7,-0.4 0.5,-0.4 m 1.5,2.4 c 0,-0.7 1.7,-1.7 1.7,-2.3 m 1,2.2 a 9,9 0 0 0 2,-1.6 m 0.4,4 2.1,-1 m -1.1,5 1.7,-1.6 m -59.7,-1.4 c -0.8,-0.3 -1.2,-1.6 -1.8,-2.2 -1.4,-1.5 -2.9,-3.5 -2.9,-5.5 m 0,6.9 c -1,-2.7 -4,-5 -4,-7.4 m 0.3,5.9 c -2,0 -1.7,-3.2 -2.7,-4.2 -0.2,-0.2 -0.2,-1.3 -0.4,-1.3 m -0.5,4.7 c -1.2,-1.2 -1.6,-3 -2.5,-4 -0.3,-0.2 -0.3,-1 -0.6,-1 m -2,4.4 c 0,-1.2 -1.2,-3.9 -2.2,-3.9 m -1.4,3.9 c -0.2,0 -0.6,-1.2 -1,-1.8 -0.2,-0.6 -1.6,-1.7 -1.6,-2 m -0.2,4.7 c 0,-1.6 -3.4,-2.4 -3.4,-3.8 m 0,5.5 c -1.3,0 -2.7,-2.5 -3.7,-3 -0.2,0 -0.8,-0.6 -0.5,-0.9 m 1,4 a 5.2,5.2 0 0 1 -3.3,-1 c -0.4,-0.3 -1.4,-1.4 -0.9,-1.4 m 0.7,3.8 c 0,0 -1.5,-0.5 -1.7,-0.7 -0.5,-0.5 -1,-1.8 -1,-2.5 m 0.2,4.8 c -1.3,0 -1.9,-2.4 -3.2,-2.4 m 0,3.3 c -1,0 -1.8,-1.2 -2.4,-1.2 m -0.3,3.6 c -0.4,-0.4 -1.4,-1 -1.2,-1 m 75.7,-5 c 0,-1 0.7,-2.8 0.7,-4.2 m 4.6,14.6 a 2,2 0 1 1 4,0 2,2 0 1 1 -4,0 m -54,-2 a 2.5,2.5 0 0 1 -2.5,3 2.5124689,2.5124689 0 1 1 0.5,-5 2,2 0 0 0 2,2 z m -2,-2 a 2,2 0 1 1 4,0 2,2 0 1 1 -4,0 m 30,-86 c 0,0 -24.8,-12.3 -34,17 -9.1,29.3 10,47.6 -29,58 m 60,-53 c 0,0 8.5,8.7 31,5 m -62.6,56.5 c 2.5,-0.6 5.2,-0.7 7.4,-0.6 a 6.5,6.5 0 0 1 1.4,10.2 l -4.2,-0.1 -5.6,-0.5 a 6.5,6.5 0 0 1 1,-9 z m 56.6,4 c 2.3,-0.5 4.9,-0.7 7.7,-0.2 a 6,6 0 0 1 -0.4,9.7 c -2.7,0.4 -4.9,0.2 -7,-0.3 A 6,6 0 0 1 243,114.8 Z M 216,27.2 c 0,0 -22.5,0.8 -23,23 -0.4,22.1 -9,41.8 -20,47 m 43,-76 c 0,0 -27.6,-9.2 -45,20 -17.3,29.2 -2.6,38 -19,46 m 0,-7 c 0,0 -12,-1.9 -14,28 -2,29.9 -4.6,39.4 -10,41 m 88,-129 c 0,0 -33.2,-9.4 -41,14 m -20,43 c 0,0 -21,-2 -15,18 6,20 1.8,38.3 -9,47 m 12,-36 c 0,0 7.7,4 1,16 -6.6,12 -32.2,12.8 -40,6 m 128,-111 c 0,0 -5.8,-15.8 -33,-5 0,0 -11.2,-5.6 -43,19 -31.7,24.6 -28.2,24.6 -37,45 0,0 0.6,5 -2,12 -2.5,7 -8.7,12 -7,21 1.7,9 2.2,17.9 0,24 -2.2,6.1 -3.2,3.4 0,11 3.3,7.6 6,22 6,22 0,0 0.5,6.3 5,8 4.5,1.7 6.2,6.5 2,9 0,0 0.3,-2.7 1,7 0.8,9.7 2,11.8 7,13 5,1.2 9,14 9,14 m 74,-188 c 0,0 -25.8,6.2 -25,20 0.9,13.7 -4,39 -4,39 m 37,-32 c 0,0 0.1,7 -13,21 -13,14 -23.6,11 -27,11 m 45,-30 c 0,0 -9.3,28.2 -40,23 m 37,-56 c 0,0 -8.5,17.6 13,22 21.6,4.3 15,1 15,1 m -27,-15 c 0,0 7.7,11.7 22,13 m -11,-8 c 0,0 24,14 8,19 -16,5 -19.3,-5.6 -31,-2 -11.7,3.5 -26.3,2.4 -19,22 7.3,19.6 2,19 2,19 m 22,-41 c 0,0 -10.4,20.1 -17,22 m 13,-23 c 0,0 -5.8,15.5 -15,19 m 10,-17 c 0,0 -0.8,7.4 -18,19 m 12,-17 c 0,0 -6.3,10.2 -15,11 m 19,-30 c 0,0 -13.3,2.1 -13,21 0.3,18.9 -7.1,31.3 -16,37 m 57,-62 c 0,0 30.6,16.4 12,17 -18.5,0.6 -26,-9 -26,-9 m -2,-14 c 0,0 6,7.2 -4,15 -10,7.8 -27.4,9.5 -27,20 0.5,10.5 9.2,17.4 3,27 m 26,-62 c 0,0 -22,14.4 -19,40 3.1,25.6 7.8,31.8 1,42 m 21,-82 c 0,0 8.2,17.3 -11,23 -19.1,5.6 -22.8,14 -23,22 -0.1,8 5.2,19.5 -5,24 m 53,6 c 0,0 -4.6,16 -2,28 1.5,6.5 5.8,13 7,15 4.5,6.9 2.3,7.2 0,13 m -29,-15 c 0,0 -7,6.3 -4,11 3,4.7 3.7,3.6 5,3 0,0 -1.4,-5.2 2,-4 3.5,1.2 6,5 6,5 m 11,0 c 0,0 3.6,-7 6,0 m -31,-15 c 0,0 -12.9,7.6 -19,27 m 8,10 c 0,0 17.5,-2.2 22,-1 4.6,1.2 7,2 7,2 0,0 3.2,-2.4 8,-1 4.8,1.4 10.1,4.1 14,3 0,0 -17.7,5.1 -51,-3 z m -53,-6 c 0,0 -0.1,50 -2,61 0,0 35.8,69 61,75 25.2,6 46,1.6 46,2 l -2,-25 -3,-7 c 0,0 1.5,-36 7,-56 m 5,-183 c 0,0 0.6,20.6 -15,19 -15.5,-1.7 -8,8 -28,21 -19.9,13 -56.6,16 -58,16 -2.8,-0.2 -11.6,-0.4 -6,12 5.6,12.4 -6,22 -6,22 0,0 -11.3,13.5 -7,27 m -16,-27 c 0,0 -1.7,14 2,22 3.8,8 2.1,13.2 5,16 3,2.8 16,3.7 16,4 m 31,-55 c 0,0 3.8,-3.4 7,-6 a 25.9,25.9 0 0 1 17,-4 c 5.2,0.6 12,9 12,9 0,0 -8.7,1.4 -16,1 -7.2,-0.4 -15.5,-2.5 -20,0 z m 61,1.4 c 0,0 13.7,-16.7 32,0 0,0 -2,-0.5 -11,2 -9,2.5 -12.5,-1.8 -21,-2 z M 394.2,297 c 0.8,0 0.9,1.4 1.5,1.4 m -3.6,-0.3 c 1,0 2,3 2.5,3.6 0.5,0.4 2.1,1 1.5,1 m -6,-1.2 c 1.1,0 1.6,1.9 2.2,2.5 0.2,0.2 1,1 0.8,1 m -4.7,-0.4 1.2,2.4 m 20.6,7.6 2,1.7 m -4.5,0 c 0.8,0 4.2,3 4.2,3.3 m -6,-0.5 a 14,14 0 0 1 2.8,2.9 m -4.2,0 1.6,2.4 m -23.3,-41 c 0.8,0 1,1.4 2,1.4 m -4.6,0.6 c 1.3,0 1.1,2.4 3,2.4 m -3.9,0.7 c 1,0 0.7,1 1.5,1 m -4.2,2.4 c 0,-1 2.8,0.8 1.6,0.8 m 50,44.9 c 1.2,2.3 -1,5.9 -2.1,7 -0.4,0.4 -0.7,1 -1.2,1.4 l -0.4,0.6 m 1,-8.4 c 0.3,0 0.2,1.2 0.2,1.6 0,1.6 -0.9,3 -1.4,4 0,0.1 -1.2,1.5 -1,1.5 m -0.6,-6.7 c 0,1.4 -0.6,5 -1.8,5 m -1.5,-3.5 -0.4,2.5 M 252,51.2 c 0,0 26.6,22.8 26,41 -0.5,18.2 -1.3,19.5 0,30 1.3,10.5 2.5,57.2 -8,75 -10.4,17.7 -24.6,32.3 -38,37 a 71.8,71.8 0 0 1 -66,-16 c -22.1,-20.3 -33,-70 -33,-70"
    class="styles__s_0--jG40g "></path>
</svg>